/* XPM */
static char * _3D_xpm[] = {
"24 22 2 1",
" 	c None",
".	c #00005C",
"                        ",
"                        ",
"                        ",
"                        ",
" ......     .......     ",
"........    .........   ",
".     ...   ..     ...  ",
"       ..   ..      ... ",
"      ...   ..       .. ",
"  .....     ..       .. ",
"  ......    ..       .. ",
"      ...   ..       .. ",
"       ..   ..       .. ",
"       ..   ..      ..  ",
".     ...   ..     ...  ",
"........    .........   ",
" ......     .......     ",
"                        ",
"                        ",
"                        ",
"                        ",
"                        "};
