/* XPM */
static char * add_xpm[] = {
"24 22 3 1",
" 	c None",
".	c #000000",
"+	c #0006FF",
"                        ",
"                        ",
"                        ",
"                        ",
"          ....          ",
"          .++.          ",
"          .++.          ",
"          .++.          ",
"          .++.          ",
"     ......++......     ",
"     .++++++++++++.     ",
"     .++++++++++++.     ",
"     ......++......     ",
"          .++.          ",
"          .++.          ",
"          .++.          ",
"          .++.          ",
"          ....          ",
"                        ",
"                        ",
"                        ",
"                        "};
