/* XPM */
static char * arrow_up_xpm[] = {
"24 22 408 2",
"  	c None",
". 	c #4281B8",
"+ 	c #0067C6",
"@ 	c #0168C6",
"# 	c #1A7CD0",
"$ 	c #2587DA",
"% 	c #2B8DDF",
"& 	c #298BDD",
"* 	c #2A8CDE",
"= 	c #2A8BDE",
"- 	c #2A8BDD",
"; 	c #2B8ADE",
"> 	c #2A8ADE",
", 	c #2B8BDE",
"' 	c #2888D5",
") 	c #177CD0",
"! 	c #006AC7",
"~ 	c #0064C0",
"{ 	c #4383BC",
"] 	c #2986D0",
"^ 	c #026AC2",
"/ 	c #1778CA",
"( 	c #59B0F0",
"_ 	c #5DBBFF",
": 	c #63B6FD",
"< 	c #66B5FF",
"[ 	c #66B6FF",
"} 	c #5EB4FD",
"| 	c #60BBFE",
"1 	c #63B5FF",
"2 	c #58BBFE",
"3 	c #61B8FF",
"4 	c #62BCFF",
"5 	c #5DBDFB",
"6 	c #61B7FF",
"7 	c #66B9FF",
"8 	c #56B0F8",
"9 	c #1677CA",
"0 	c #026DCB",
"a 	c #3580C1",
"b 	c #0266C2",
"c 	c #2D84D1",
"d 	c #57B4FF",
"e 	c #44A5FE",
"f 	c #3B9CF4",
"g 	c #379EFA",
"h 	c #379CF8",
"i 	c #329AF8",
"j 	c #3BA1FD",
"k 	c #389FFB",
"l 	c #3D9DF3",
"m 	c #40A0F9",
"n 	c #3BA3FB",
"o 	c #4AA1FC",
"p 	c #40A2FC",
"q 	c #3EA8FA",
"r 	c #44A5F9",
"s 	c #4AABFE",
"t 	c #52AEFB",
"u 	c #63B9FF",
"v 	c #1C82D9",
"w 	c #0568BA",
"x 	c #0B6FCD",
"y 	c #4DA9FB",
"z 	c #2A96FA",
"A 	c #2E8FFB",
"B 	c #2E96FF",
"C 	c #2E96FB",
"D 	c #2A97FC",
"E 	c #3898F3",
"F 	c #3599F8",
"G 	c #389AFD",
"H 	c #399EFD",
"I 	c #2FA0FE",
"J 	c #359FF5",
"K 	c #329FFB",
"L 	c #3EA4FD",
"M 	c #3F9FF0",
"N 	c #42A2F8",
"O 	c #3EA4FE",
"P 	c #43A4F7",
"Q 	c #4EB2FA",
"R 	c #0672CA",
"S 	c #1C83D6",
"T 	c #2B91F3",
"U 	c #2692FF",
"V 	c #2A91F7",
"W 	c #3192F7",
"X 	c #2B97FF",
"Y 	c #3795F4",
"Z 	c #3197F8",
"` 	c #2B9AFF",
" .	c #2F95F9",
"..	c #89C3FA",
"+.	c #71BAF8",
"@.	c #3696F9",
"#.	c #349DFC",
"$.	c #3EA0FA",
"%.	c #3AA0FF",
"&.	c #3BA0FC",
"*.	c #40A6FE",
"=.	c #40A3F9",
"-.	c #3FA5FE",
";.	c #44A7FB",
">.	c #2083D8",
",.	c #137EDF",
"'.	c #2E8DF1",
").	c #2791FE",
"!.	c #2C93FA",
"~.	c #2A8FF7",
"{.	c #2E90F5",
"].	c #3297FD",
"^.	c #2F95FA",
"/.	c #2B96F9",
"(.	c #87C4F6",
"_.	c #F8FCF5",
":.	c #F1FBF7",
"<.	c #78BCF8",
"[.	c #359CFE",
"}.	c #349EF3",
"|.	c #3BA2F5",
"1.	c #3EA2FC",
"2.	c #37A3FE",
"3.	c #42A3FA",
"4.	c #42A6FD",
"5.	c #40A4FB",
"6.	c #1F85DE",
"7.	c #1079E3",
"8.	c #2F8CF3",
"9.	c #218EFD",
"0.	c #298FF7",
"a.	c #2F91F7",
"b.	c #2492FB",
"c.	c #2D8FFB",
"d.	c #2891FF",
"e.	c #87C3F7",
"f.	c #F8FEF9",
"g.	c #FBFEFE",
"h.	c #FFFDFD",
"i.	c #F2FBFD",
"j.	c #7BB8FE",
"k.	c #309BF9",
"l.	c #389CFB",
"m.	c #42A0F6",
"n.	c #37A2FE",
"o.	c #3CA3FD",
"p.	c #41A7FF",
"q.	c #1E85E0",
"r.	c #107ADE",
"s.	c #268CF9",
"t.	c #278DF9",
"u.	c #278EF9",
"v.	c #2192F6",
"w.	c #3095FC",
"x.	c #2290F8",
"y.	c #A1D3FE",
"z.	c #FFFFFA",
"A.	c #FBFCF9",
"B.	c #F9FEFE",
"C.	c #FEFDF8",
"D.	c #FCFEF6",
"E.	c #FDFCFB",
"F.	c #8FCBFC",
"G.	c #2E96F2",
"H.	c #399EF9",
"I.	c #3A9FFB",
"J.	c #3CA1FD",
"K.	c #3BA0FB",
"L.	c #3FA4FE",
"M.	c #1E86DF",
"N.	c #0F79DD",
"O.	c #258BF7",
"P.	c #268BFA",
"Q.	c #258EF9",
"R.	c #2D89F4",
"S.	c #2D94F5",
"T.	c #9DCBFE",
"U.	c #FDFEFF",
"V.	c #FEFAF6",
"W.	c #E6F1FE",
"X.	c #FCFCFD",
"Y.	c #F7FBFB",
"Z.	c #D8EFFE",
"`.	c #FFFFFB",
" +	c #FDFAFE",
".+	c #8EC5FD",
"++	c #3A9EFA",
"@+	c #389DFA",
"#+	c #3DA2FE",
"$+	c #3DA2FD",
"%+	c #1D85DE",
"&+	c #0E78DE",
"*+	c #2389F7",
"=+	c #258AF9",
"-+	c #248BF8",
";+	c #2793FE",
">+	c #4FA0F3",
",+	c #FFFFFD",
"'+	c #FFFFF7",
")+	c #B4DBF5",
"!+	c #73B8F9",
"~+	c #F9F9FD",
"{+	c #E2F4FE",
"]+	c #40A0F5",
"^+	c #C2E5FE",
"/+	c #5BB3FD",
"(+	c #3CA0FD",
"_+	c #3CA2FE",
":+	c #1C83E0",
"<+	c #2287F6",
"[+	c #2489F9",
"}+	c #238BFA",
"|+	c #2288F5",
"1+	c #2B8FF8",
"2+	c #87C0FE",
"3+	c #AFDCFC",
"4+	c #1789FE",
"5+	c #71B6F9",
"6+	c #F9F7FE",
"7+	c #ECF2FF",
"8+	c #379AFA",
"9+	c #2490F7",
"0+	c #9ECBFD",
"a+	c #BADDFB",
"b+	c #3F9FFB",
"c+	c #3599F7",
"d+	c #379BF9",
"e+	c #389CFA",
"f+	c #3A9EFC",
"g+	c #1C83DF",
"h+	c #2186F5",
"i+	c #2489F8",
"j+	c #2389F9",
"k+	c #228CF6",
"l+	c #298BF3",
"m+	c #2990FB",
"n+	c #298DF6",
"o+	c #2C8FFA",
"p+	c #70B7F9",
"q+	c #EFFBFE",
"r+	c #EAF4FC",
"s+	c #369AF4",
"t+	c #2C96FF",
"u+	c #3394F3",
"v+	c #359BF9",
"w+	c #3399F9",
"x+	c #369AFA",
"y+	c #389CFC",
"z+	c #1C84E1",
"A+	c #0F76D8",
"B+	c #1F89F8",
"C+	c #2382FC",
"D+	c #1D8AF7",
"E+	c #208CFA",
"F+	c #2A89FC",
"G+	c #1D8FF2",
"H+	c #2B8EFB",
"I+	c #2C8AF2",
"J+	c #70B3FC",
"K+	c #F2FCFE",
"L+	c #EBEFFD",
"M+	c #3496F4",
"N+	c #3294FD",
"O+	c #2897FE",
"P+	c #3696FA",
"Q+	c #349AF9",
"R+	c #369EFB",
"S+	c #1B84E0",
"T+	c #0F77DB",
"U+	c #1C8AF8",
"V+	c #2083F7",
"W+	c #1F89F5",
"X+	c #1F88F6",
"Y+	c #2689F6",
"Z+	c #1F8CF8",
"`+	c #268DFD",
" @	c #208AFE",
".@	c #6CB4FD",
"+@	c #F4FCFD",
"@@	c #EAF2FC",
"#@	c #3295FC",
"$@	c #3090F8",
"%@	c #3094FD",
"&@	c #3295F8",
"*@	c #2E95F8",
"=@	c #349AFD",
"-@	c #3498F9",
";@	c #389FFD",
">@	c #1981DD",
",@	c #1683FC",
"'@	c #1F86F8",
")@	c #1D86F7",
"!@	c #1B87F6",
"~@	c #2288FD",
"{@	c #2189F8",
"]@	c #2590FE",
"^@	c #6EB2F4",
"/@	c #F5F8FD",
"(@	c #E7F4FB",
"_@	c #2D99FE",
":@	c #2995EF",
"<@	c #2B94F9",
"[@	c #2F97FC",
"}@	c #2F96FB",
"|@	c #3397FC",
"1@	c #3599FC",
"2@	c #359AF9",
"3@	c #1B82DF",
"4@	c #167CDB",
"5@	c #1C82FC",
"6@	c #1B82F8",
"7@	c #1F85FB",
"8@	c #1D89FC",
"9@	c #1F84F2",
"0@	c #2587FB",
"a@	c #2289F4",
"b@	c #2487F5",
"c@	c #6DB6F8",
"d@	c #FFFFFE",
"e@	c #EFF6FD",
"f@	c #3891F8",
"g@	c #2992FC",
"h@	c #2C90F9",
"i@	c #3092F3",
"j@	c #2D95FB",
"k@	c #2F95FC",
"l@	c #3297FB",
"m@	c #3195F6",
"n@	c #369AF8",
"o@	c #1A81DC",
"p@	c #0B73CA",
"q@	c #308FF1",
"r@	c #1D83F4",
"s@	c #1C82FA",
"t@	c #1782F2",
"u@	c #2387F7",
"v@	c #2086F8",
"w@	c #1F8BF9",
"x@	c #2A89FA",
"y@	c #2D8AEA",
"z@	c #3191F7",
"A@	c #489AFD",
"B@	c #1D8DFE",
"C@	c #2894FF",
"D@	c #2A8FF4",
"E@	c #2B90FE",
"F@	c #2992F9",
"G@	c #3097FD",
"H@	c #3095F8",
"I@	c #3498F7",
"J@	c #379CF6",
"K@	c #0D72CA",
"L@	c #0268BC",
"M@	c #2587DB",
"N@	c #3E9FFD",
"O@	c #248BFA",
"P@	c #1A84F6",
"Q@	c #1C81F5",
"R@	c #1983F6",
"S@	c #1787FB",
"T@	c #1B82F6",
"U@	c #1B8BFF",
"V@	c #1C8BF7",
"W@	c #2886F3",
"X@	c #258AFC",
"Y@	c #298FF4",
"Z@	c #258FF8",
"`@	c #2991F9",
" #	c #2893FC",
".#	c #3999F6",
"+#	c #4AAAFF",
"@#	c #1E87E3",
"##	c #0267BB",
"$#	c #006CC5",
"%#	c #1276D5",
"&#	c #5AADF7",
"*#	c #5DB4FF",
"=#	c #54ADFF",
"-#	c #4FA8FB",
";#	c #51A9FD",
">#	c #53ACFF",
",#	c #50A8FC",
"'#	c #52AAFD",
")#	c #53ABFD",
"!#	c #53ABFE",
"~#	c #54ACFE",
"{#	c #60ACF4",
"]#	c #5CBCFF",
"^#	c #55B0FA",
"/#	c #1475D2",
"(#	c #036DCB",
"_#	c #377FC3",
":#	c #0169C1",
"<#	c #0167BE",
"[#	c #1C7DCD",
"}#	c #2788D7",
"|#	c #2C8DDC",
"1#	c #2B8BDA",
"2#	c #2B8CDB",
"3#	c #2D8DDD",
"4#	c #2B8DDC",
"5#	c #2A8CDB",
"6#	c #2589E1",
"7#	c #197BD2",
"8#	c #0067BC",
"9#	c #006CC6",
"0#	c #3D85C9",
"a#	c #E9E9E9",
"                                                ",
"    . + @ # $ % & * = - ; = > ; , ' ) ! ~ {     ",
"  ] ^ / ( _ : < [ } | 1 2 3 4 5 6 7 3 8 9 0 a   ",
"  b c d e f g h i j k l m n o p q r s t u v w   ",
"  x y z A B C D E F G H I J K L M N p O P Q R   ",
"  S T U V W X Y Z `  ...+.@.#.$.%.&.*.=.-.;.>.  ",
"  ,.'.).!.~.{.].^./.(._.:.<.[.}.|.1.2.3.4.5.6.  ",
"  7.8.9.0.a.b.c.d.e.f.g.h.i.j.k.l.m.n.n o.p.q.  ",
"  r.s.t.u.v.w.x.y.z.A.B.C.D.E.F.G.H.I.J.K.L.M.  ",
"  N.O.P.Q.R.S.T.U.V.W.X.Y.Z.`. +.+++@+J.#+$+%+  ",
"  &+*+=+-+;+>+,+'+)+!+~+{+]+^+`.`./+(+@+I._+:+  ",
"  &+<+[+}+|+1+2+3+4+5+6+7+8+9+0+a+b+c+d+e+f+g+  ",
"  &+h+i+j+k+l+m+n+o+p+q+r+s+t+u+v+w+x+y+e+f+z+  ",
"  A+B+C+D+E+F+G+H+I+J+K+L+M+N+O+P+Q+w+8+e+R+S+  ",
"  T+U+V+W+X+Y+Z+`+ @.@+@@@#@$@%@&@*@=@-@x+;@>@  ",
"  T+,@'@)@!@O.~@{@]@^@/@(@_@:@<@D [@}@|@1@2@3@  ",
"  4@5@6@7@8@9@0@a@b@c@d@e@f@g@h@i@j@k@l@m@n@o@  ",
"  p@q@r@s@t@u@v@w@x@y@z@A@B@C@D@E@F@G@H@I@J@K@  ",
"  L@M@N@O@P@Q@R@S@T@U@V@W@-+X@Y@Z@`@ #.#+#@###  ",
"    $#%#&#*#=#-#;#>#,#'#'#)#!#~#=#{#]#^#/#(#_#  ",
"      :#<#[#}#|#1#2#3#4#4#5#5#5#5#6#7#8#9#0#    ",
"                                              a#"};
