/* XPM */
static char * arrow_down_xpm[] = {
"24 22 408 2",
"  	c None",
". 	c #E9E9E9",
"+ 	c #0169C1",
"@ 	c #0167BE",
"# 	c #1C7DCD",
"$ 	c #2788D7",
"% 	c #2C8DDC",
"& 	c #2B8BDA",
"* 	c #2B8CDB",
"= 	c #2D8DDD",
"- 	c #2B8DDC",
"; 	c #2A8CDB",
"> 	c #2589E1",
", 	c #197BD2",
"' 	c #0067BC",
") 	c #006CC6",
"! 	c #3D85C9",
"~ 	c #006CC5",
"{ 	c #1276D5",
"] 	c #5AADF7",
"^ 	c #5DB4FF",
"/ 	c #54ADFF",
"( 	c #4FA8FB",
"_ 	c #51A9FD",
": 	c #53ACFF",
"< 	c #50A8FC",
"[ 	c #52AAFD",
"} 	c #53ABFD",
"| 	c #53ABFE",
"1 	c #54ACFE",
"2 	c #60ACF4",
"3 	c #5CBCFF",
"4 	c #55B0FA",
"5 	c #1475D2",
"6 	c #036DCB",
"7 	c #377FC3",
"8 	c #0268BC",
"9 	c #2587DB",
"0 	c #3E9FFD",
"a 	c #248BFA",
"b 	c #1A84F6",
"c 	c #1C81F5",
"d 	c #1983F6",
"e 	c #1787FB",
"f 	c #1B82F6",
"g 	c #1B8BFF",
"h 	c #1C8BF7",
"i 	c #2886F3",
"j 	c #248BF8",
"k 	c #258AFC",
"l 	c #298FF4",
"m 	c #258FF8",
"n 	c #2991F9",
"o 	c #2893FC",
"p 	c #3999F6",
"q 	c #4AAAFF",
"r 	c #1E87E3",
"s 	c #0267BB",
"t 	c #0B73CA",
"u 	c #308FF1",
"v 	c #1D83F4",
"w 	c #1C82FA",
"x 	c #1782F2",
"y 	c #2387F7",
"z 	c #2086F8",
"A 	c #1F8BF9",
"B 	c #2A89FA",
"C 	c #2D8AEA",
"D 	c #3191F7",
"E 	c #489AFD",
"F 	c #1D8DFE",
"G 	c #2894FF",
"H 	c #2A8FF4",
"I 	c #2B90FE",
"J 	c #2992F9",
"K 	c #3097FD",
"L 	c #3095F8",
"M 	c #3498F7",
"N 	c #379CF6",
"O 	c #0D72CA",
"P 	c #167CDB",
"Q 	c #1C82FC",
"R 	c #1B82F8",
"S 	c #1F85FB",
"T 	c #1D89FC",
"U 	c #1F84F2",
"V 	c #2587FB",
"W 	c #2289F4",
"X 	c #2487F5",
"Y 	c #6DB6F8",
"Z 	c #FFFFFE",
"` 	c #EFF6FD",
" .	c #3891F8",
"..	c #2992FC",
"+.	c #2C90F9",
"@.	c #3092F3",
"#.	c #2D95FB",
"$.	c #2F95FC",
"%.	c #3297FB",
"&.	c #3195F6",
"*.	c #369AF8",
"=.	c #1A81DC",
"-.	c #0F77DB",
";.	c #1683FC",
">.	c #1F86F8",
",.	c #1D86F7",
"'.	c #1B87F6",
").	c #258BF7",
"!.	c #2288FD",
"~.	c #2189F8",
"{.	c #2590FE",
"].	c #6EB2F4",
"^.	c #F5F8FD",
"/.	c #E7F4FB",
"(.	c #2D99FE",
"_.	c #2995EF",
":.	c #2B94F9",
"<.	c #2A97FC",
"[.	c #2F97FC",
"}.	c #2F96FB",
"|.	c #3397FC",
"1.	c #3599FC",
"2.	c #359AF9",
"3.	c #1B82DF",
"4.	c #1C8AF8",
"5.	c #2083F7",
"6.	c #1F89F5",
"7.	c #1F88F6",
"8.	c #2689F6",
"9.	c #1F8CF8",
"0.	c #268DFD",
"a.	c #208AFE",
"b.	c #6CB4FD",
"c.	c #F4FCFD",
"d.	c #EAF2FC",
"e.	c #3295FC",
"f.	c #3090F8",
"g.	c #3094FD",
"h.	c #3295F8",
"i.	c #2E95F8",
"j.	c #349AFD",
"k.	c #3498F9",
"l.	c #369AFA",
"m.	c #389FFD",
"n.	c #1981DD",
"o.	c #0F76D8",
"p.	c #1F89F8",
"q.	c #2382FC",
"r.	c #1D8AF7",
"s.	c #208CFA",
"t.	c #2A89FC",
"u.	c #1D8FF2",
"v.	c #2B8EFB",
"w.	c #2C8AF2",
"x.	c #70B3FC",
"y.	c #F2FCFE",
"z.	c #EBEFFD",
"A.	c #3496F4",
"B.	c #3294FD",
"C.	c #2897FE",
"D.	c #3696FA",
"E.	c #349AF9",
"F.	c #3399F9",
"G.	c #379AFA",
"H.	c #389CFA",
"I.	c #369EFB",
"J.	c #1B84E0",
"K.	c #0E78DE",
"L.	c #2186F5",
"M.	c #2489F8",
"N.	c #2389F9",
"O.	c #228CF6",
"P.	c #298BF3",
"Q.	c #2990FB",
"R.	c #298DF6",
"S.	c #2C8FFA",
"T.	c #70B7F9",
"U.	c #EFFBFE",
"V.	c #EAF4FC",
"W.	c #369AF4",
"X.	c #2C96FF",
"Y.	c #3394F3",
"Z.	c #359BF9",
"`.	c #389CFC",
" +	c #3A9EFC",
".+	c #1C84E1",
"++	c #2287F6",
"@+	c #2489F9",
"#+	c #238BFA",
"$+	c #2288F5",
"%+	c #2B8FF8",
"&+	c #87C0FE",
"*+	c #AFDCFC",
"=+	c #1789FE",
"-+	c #71B6F9",
";+	c #F9F7FE",
">+	c #ECF2FF",
",+	c #2490F7",
"'+	c #9ECBFD",
")+	c #BADDFB",
"!+	c #3F9FFB",
"~+	c #3599F7",
"{+	c #379BF9",
"]+	c #1C83DF",
"^+	c #2389F7",
"/+	c #258AF9",
"(+	c #2793FE",
"_+	c #4FA0F3",
":+	c #FFFFFD",
"<+	c #FFFFF7",
"[+	c #B4DBF5",
"}+	c #73B8F9",
"|+	c #F9F9FD",
"1+	c #E2F4FE",
"2+	c #40A0F5",
"3+	c #C2E5FE",
"4+	c #FFFFFB",
"5+	c #5BB3FD",
"6+	c #3CA0FD",
"7+	c #389DFA",
"8+	c #3A9FFB",
"9+	c #3CA2FE",
"0+	c #1C83E0",
"a+	c #0F79DD",
"b+	c #268BFA",
"c+	c #258EF9",
"d+	c #2D89F4",
"e+	c #2D94F5",
"f+	c #9DCBFE",
"g+	c #FDFEFF",
"h+	c #FEFAF6",
"i+	c #E6F1FE",
"j+	c #FCFCFD",
"k+	c #F7FBFB",
"l+	c #D8EFFE",
"m+	c #FDFAFE",
"n+	c #8EC5FD",
"o+	c #3A9EFA",
"p+	c #3CA1FD",
"q+	c #3DA2FE",
"r+	c #3DA2FD",
"s+	c #1D85DE",
"t+	c #107ADE",
"u+	c #268CF9",
"v+	c #278DF9",
"w+	c #278EF9",
"x+	c #2192F6",
"y+	c #3095FC",
"z+	c #2290F8",
"A+	c #A1D3FE",
"B+	c #FFFFFA",
"C+	c #FBFCF9",
"D+	c #F9FEFE",
"E+	c #FEFDF8",
"F+	c #FCFEF6",
"G+	c #FDFCFB",
"H+	c #8FCBFC",
"I+	c #2E96F2",
"J+	c #399EF9",
"K+	c #3BA0FB",
"L+	c #3FA4FE",
"M+	c #1E86DF",
"N+	c #1079E3",
"O+	c #2F8CF3",
"P+	c #218EFD",
"Q+	c #298FF7",
"R+	c #2F91F7",
"S+	c #2492FB",
"T+	c #2D8FFB",
"U+	c #2891FF",
"V+	c #87C3F7",
"W+	c #F8FEF9",
"X+	c #FBFEFE",
"Y+	c #FFFDFD",
"Z+	c #F2FBFD",
"`+	c #7BB8FE",
" @	c #309BF9",
".@	c #389CFB",
"+@	c #42A0F6",
"@@	c #37A2FE",
"#@	c #3BA3FB",
"$@	c #3CA3FD",
"%@	c #41A7FF",
"&@	c #1E85E0",
"*@	c #137EDF",
"=@	c #2E8DF1",
"-@	c #2791FE",
";@	c #2C93FA",
">@	c #2A8FF7",
",@	c #2E90F5",
"'@	c #3297FD",
")@	c #2F95FA",
"!@	c #2B96F9",
"~@	c #87C4F6",
"{@	c #F8FCF5",
"]@	c #F1FBF7",
"^@	c #78BCF8",
"/@	c #359CFE",
"(@	c #349EF3",
"_@	c #3BA2F5",
":@	c #3EA2FC",
"<@	c #37A3FE",
"[@	c #42A3FA",
"}@	c #42A6FD",
"|@	c #40A4FB",
"1@	c #1F85DE",
"2@	c #1C83D6",
"3@	c #2B91F3",
"4@	c #2692FF",
"5@	c #2A91F7",
"6@	c #3192F7",
"7@	c #2B97FF",
"8@	c #3795F4",
"9@	c #3197F8",
"0@	c #2B9AFF",
"a@	c #2F95F9",
"b@	c #89C3FA",
"c@	c #71BAF8",
"d@	c #3696F9",
"e@	c #349DFC",
"f@	c #3EA0FA",
"g@	c #3AA0FF",
"h@	c #3BA0FC",
"i@	c #40A6FE",
"j@	c #40A3F9",
"k@	c #3FA5FE",
"l@	c #44A7FB",
"m@	c #2083D8",
"n@	c #0B6FCD",
"o@	c #4DA9FB",
"p@	c #2A96FA",
"q@	c #2E8FFB",
"r@	c #2E96FF",
"s@	c #2E96FB",
"t@	c #3898F3",
"u@	c #3599F8",
"v@	c #389AFD",
"w@	c #399EFD",
"x@	c #2FA0FE",
"y@	c #359FF5",
"z@	c #329FFB",
"A@	c #3EA4FD",
"B@	c #3F9FF0",
"C@	c #42A2F8",
"D@	c #40A2FC",
"E@	c #3EA4FE",
"F@	c #43A4F7",
"G@	c #4EB2FA",
"H@	c #0672CA",
"I@	c #0266C2",
"J@	c #2D84D1",
"K@	c #57B4FF",
"L@	c #44A5FE",
"M@	c #3B9CF4",
"N@	c #379EFA",
"O@	c #379CF8",
"P@	c #329AF8",
"Q@	c #3BA1FD",
"R@	c #389FFB",
"S@	c #3D9DF3",
"T@	c #40A0F9",
"U@	c #4AA1FC",
"V@	c #3EA8FA",
"W@	c #44A5F9",
"X@	c #4AABFE",
"Y@	c #52AEFB",
"Z@	c #63B9FF",
"`@	c #1C82D9",
" #	c #0568BA",
".#	c #2986D0",
"+#	c #026AC2",
"@#	c #1778CA",
"##	c #59B0F0",
"$#	c #5DBBFF",
"%#	c #63B6FD",
"&#	c #66B5FF",
"*#	c #66B6FF",
"=#	c #5EB4FD",
"-#	c #60BBFE",
";#	c #63B5FF",
">#	c #58BBFE",
",#	c #61B8FF",
"'#	c #62BCFF",
")#	c #5DBDFB",
"!#	c #61B7FF",
"~#	c #66B9FF",
"{#	c #56B0F8",
"]#	c #1677CA",
"^#	c #026DCB",
"/#	c #3580C1",
"(#	c #4281B8",
"_#	c #0067C6",
":#	c #0168C6",
"<#	c #1A7CD0",
"[#	c #2587DA",
"}#	c #2B8DDF",
"|#	c #298BDD",
"1#	c #2A8CDE",
"2#	c #2A8BDE",
"3#	c #2A8BDD",
"4#	c #2B8ADE",
"5#	c #2A8ADE",
"6#	c #2B8BDE",
"7#	c #2888D5",
"8#	c #177CD0",
"9#	c #006AC7",
"0#	c #0064C0",
"a#	c #4383BC",
"                                              . ",
"      + @ # $ % & * = - - ; ; ; ; > , ' ) !     ",
"    ~ { ] ^ / ( _ : < [ [ } | 1 / 2 3 4 5 6 7   ",
"  8 9 0 a b c d e f g h i j k l m n o p q r s   ",
"  t u v w x y z A B C D E F G H I J K L M N O   ",
"  P Q R S T U V W X Y Z `  ...+.@.#.$.%.&.*.=.  ",
"  -.;.>.,.'.).!.~.{.].^./.(._.:.<.[.}.|.1.2.3.  ",
"  -.4.5.6.7.8.9.0.a.b.c.d.e.f.g.h.i.j.k.l.m.n.  ",
"  o.p.q.r.s.t.u.v.w.x.y.z.A.B.C.D.E.F.G.H.I.J.  ",
"  K.L.M.N.O.P.Q.R.S.T.U.V.W.X.Y.Z.F.l.`.H. +.+  ",
"  K.++@+#+$+%+&+*+=+-+;+>+G.,+'+)+!+~+{+H. +]+  ",
"  K.^+/+j (+_+:+<+[+}+|+1+2+3+4+4+5+6+7+8+9+0+  ",
"  a+).b+c+d+e+f+g+h+i+j+k+l+4+m+n+o+7+p+q+r+s+  ",
"  t+u+v+w+x+y+z+A+B+C+D+E+F+G+H+I+J+8+p+K+L+M+  ",
"  N+O+P+Q+R+S+T+U+V+W+X+Y+Z+`+ @.@+@@@#@$@%@&@  ",
"  *@=@-@;@>@,@'@)@!@~@{@]@^@/@(@_@:@<@[@}@|@1@  ",
"  2@3@4@5@6@7@8@9@0@a@b@c@d@e@f@g@h@i@j@k@l@m@  ",
"  n@o@p@q@r@s@<.t@u@v@w@x@y@z@A@B@C@D@E@F@G@H@  ",
"  I@J@K@L@M@N@O@P@Q@R@S@T@#@U@D@V@W@X@Y@Z@`@ #  ",
"  .#+#@###$#%#&#*#=#-#;#>#,#'#)#!#~#,#{#]#^#/#  ",
"    (#_#:#<#[#}#|#1#2#3#4#2#5#4#6#7#8#9#0#a#    ",
"                                                "};
