/* XPM */
static char *audio_xpm[] = {
"24 22 124 2",
"  	c None",
". 	c #CACACB",
"+ 	c #C7C7C9",
"@ 	c #C7C7C8",
"# 	c #4B4B4D",
"$ 	c #3E3E40",
"% 	c #CACACC",
"& 	c #C6C6C7",
"* 	c #505154",
"= 	c #47464C",
"- 	c #4A494F",
"; 	c #606063",
"> 	c #4F4F51",
", 	c #464648",
"' 	c #454547",
") 	c #C7C7C7",
"! 	c #504B52",
"~ 	c #454048",
"{ 	c #443F46",
"] 	c #4A474C",
"^ 	c #535252",
"/ 	c #414042",
"( 	c #5A5859",
"_ 	c #474548",
": 	c #C8C8C8",
"< 	c #4B474E",
"[ 	c #463F48",
"} 	c #453D47",
"| 	c #484249",
"1 	c #4C494D",
"2 	c #4F4D50",
"3 	c #4F4D54",
"4 	c #4D4B4F",
"5 	c #545158",
"6 	c #C9C9C9",
"7 	c #6B696C",
"8 	c #49474A",
"9 	c #707073",
"0 	c #433F46",
"a 	c #474049",
"b 	c #48404A",
"c 	c #49444A",
"d 	c #4D4A4E",
"e 	c #4F4D51",
"f 	c #4C4A50",
"g 	c #4D4B50",
"h 	c #4B484F",
"i 	c #C6C6C6",
"j 	c #D0D0D0",
"k 	c #615F62",
"l 	c #484649",
"m 	c #89878A",
"n 	c #6B696D",
"o 	c #464449",
"p 	c #49434B",
"q 	c #4A424C",
"r 	c #4B454C",
"s 	c #4E4B4F",
"t 	c #555359",
"u 	c #4B494F",
"v 	c #504D52",
"w 	c #565359",
"x 	c #CACACA",
"y 	c #CDCDCD",
"z 	c #8C8B8E",
"A 	c #6A6A6D",
"B 	c #49464C",
"C 	c #4C464E",
"D 	c #4D454F",
"E 	c #4D484E",
"F 	c #534E54",
"G 	c #655F67",
"H 	c #4B464D",
"I 	c #3F3D43",
"J 	c #5D5B61",
"K 	c #CCCCCC",
"L 	c #6F6D70",
"M 	c #4D4B4E",
"N 	c #706F72",
"O 	c #4D4850",
"P 	c #4E4751",
"Q 	c #4F4A50",
"R 	c #545055",
"S 	c #625E63",
"T 	c #565057",
"U 	c #5C5A5F",
"V 	c #514E54",
"W 	c #626063",
"X 	c #6D6C70",
"Y 	c #4F4B52",
"Z 	c #4E4750",
"` 	c #4F4752",
" .	c #504A51",
"..	c #555156",
"+.	c #5A565A",
"@.	c #575058",
"#.	c #504E53",
"$.	c #5E5B62",
"%.	c #565158",
"&.	c #514C53",
"*.	c #555258",
"=.	c #676769",
"-.	c #555356",
";.	c #625D63",
">.	c #555358",
",.	c #5E5C63",
"'.	c #CBCBCB",
").	c #5D5D60",
"!.	c #56555B",
"~.	c #55545A",
"{.	c #6A6A6E",
"].	c #626264",
"^.	c #5E5D63",
"/.	c #57575C",
"(.	c #CECECE",
"_.	c #68676C",
":.	c #626265",
"<.	c #59585D",
"[.	c #605F65",
"}.	c #69696B",
"|.	c #66666A",
"1.	c #CFCFCF",
"2.	c #D4D4D4",
"3.	c #D1D1D1",
"                                                ",
"                                                ",
"                                                ",
"                                    .           ",
"                                    + @         ",
"                            # $     % &         ",
"              * = -   ; >     , '     @ )       ",
"            ! ~ { ]   ^ /     ( _     : :       ",
"          < [ } | 1     2 3     4 5     6       ",
"  7 8   9 0 a b c d     e f     g h     i j     ",
"  k l m n o p q r s     t u     v w     x y     ",
"  k l z A B C D E F     G H     I J     6 K     ",
"  L M   N B O P Q R     S T     U V     x j     ",
"    W   X Y Z `  ...    +.@.    #.$.    x       ",
"            %. .&.*.  =.-.;.    >.,.  K '.      ",
"              ).!.~.  {.].    ^./.    K (.      ",
"                _.          :.<.[.    y j       ",
"                            }.|.    j 1.        ",
"                                  2.1.3.        ",
"                                    2.          ",
"                                                ",
"                                                "};
