/* XPM */
static char * Camera_xpm[] = {
"16 16 159 2",
"  	c None",
". 	c #999999",
"+ 	c #757575",
"@ 	c #777777",
"# 	c #767676",
"$ 	c #A7A7A7",
"% 	c #656565",
"& 	c #929290",
"* 	c #2F3130",
"= 	c #C4C4C2",
"- 	c #323232",
"; 	c #323234",
"> 	c #30322F",
", 	c #333333",
"' 	c #333132",
") 	c #313131",
"! 	c #313330",
"~ 	c #C7C8CA",
"{ 	c #151515",
"] 	c #9C9C9C",
"^ 	c #D8D8D8",
"/ 	c #585858",
"( 	c #6E6E6C",
"_ 	c #6D6F6E",
": 	c #434446",
"< 	c #444446",
"[ 	c #747474",
"} 	c #9A9995",
"| 	c #A9A9AB",
"1 	c #9A9A9C",
"2 	c #474546",
"3 	c #E5E5E7",
"4 	c #0E0E0C",
"5 	c #5E5E5C",
"6 	c #858585",
"7 	c #302E2F",
"8 	c #323230",
"9 	c #343635",
"0 	c #4F5052",
"a 	c #6E6E6E",
"b 	c #4D4D4D",
"c 	c #393939",
"d 	c #404241",
"e 	c #373938",
"f 	c #4D4D4B",
"g 	c #6E6C6F",
"h 	c #514F52",
"i 	c #575956",
"j 	c #0C0C0C",
"k 	c #919392",
"l 	c #303030",
"m 	c #474747",
"n 	c #5A5957",
"o 	c #3F413E",
"p 	c #727A7C",
"q 	c #D0D9E2",
"r 	c #DCE5EA",
"s 	c #717B7A",
"t 	c #424041",
"u 	c #595959",
"v 	c #464646",
"w 	c #5F5D5E",
"x 	c #8F9190",
"y 	c #303231",
"z 	c #3D3D3F",
"A 	c #4E4C4D",
"B 	c #3F3F3D",
"C 	c #626F75",
"D 	c #AEC0CE",
"E 	c #AEC1CF",
"F 	c #ADBDCD",
"G 	c #ACC2CD",
"H 	c #9EAEBB",
"I 	c #3D4547",
"J 	c #3F3E43",
"K 	c #0C0E0D",
"L 	c #919193",
"M 	c #2F2F2D",
"N 	c #4E4E4E",
"O 	c #393836",
"P 	c #4A4E4D",
"Q 	c #7993A2",
"R 	c #7D99A7",
"S 	c #7B9AAC",
"T 	c #8299A9",
"U 	c #697C8A",
"V 	c #203030",
"W 	c #51686E",
"X 	c #37383C",
"Y 	c #0D0F0E",
"Z 	c #252525",
"` 	c #565A5B",
" .	c #617D89",
"..	c #617D88",
"+.	c #607D85",
"@.	c #455A5F",
"#.	c #192727",
"$.	c #243330",
"%.	c #5F7B86",
"&.	c #555B5B",
"*.	c #0D0D0F",
"=.	c #5F5E5C",
"-.	c #909291",
";.	c #30302E",
">.	c #6A6C6B",
",.	c #1A1A1C",
"'.	c #5D5F5E",
").	c #455A5D",
"!.	c #445B61",
"~.	c #283A3A",
"{.	c #172623",
"].	c #182422",
"^.	c #3B5053",
"/.	c #445A65",
"(.	c #5C5D5F",
"_.	c #1D191A",
":.	c #868686",
"<.	c #435B65",
"[.	c #2B4953",
"}.	c #27454F",
"|.	c #26424E",
"1.	c #2D4D58",
"2.	c #355A63",
"3.	c #3E5F68",
"4.	c #3C525D",
"5.	c #5B5B5B",
"6.	c #919191",
"7.	c #B4B4B4",
"8.	c #535554",
"9.	c #787A79",
"0.	c #777D7B",
"a.	c #616D6B",
"b.	c #5F6E6B",
"c.	c #626E6C",
"d.	c #707676",
"e.	c #797778",
"f.	c #545253",
"g.	c #868885",
"h.	c #5E5E5E",
"i.	c #929292",
"j.	c #2E2E2E",
"k.	c #434343",
"l.	c #232323",
"m.	c #000000",
"n.	c #1D1B1C",
"o.	c #3A3A3A",
"p.	c #3F3F3F",
"q.	c #3C3C3C",
"r.	c #1B1B1B",
"s.	c #424443",
"t.	c #212121",
"u.	c #222222",
"v.	c #1D1D1D",
"w.	c #080A09",
"x.	c #020202",
"y.	c #010000",
"z.	c #0B0B0B",
"A.	c #1C1C1C",
"B.	c #222423",
"                                ",
"                . . . . .       ",
"              . + @ # # @ .     ",
"$ % & *     = - ; > , ' ) ! ~   ",
"{ ] ^ / ( _ : < [ } | 1 @ : 2 3 ",
"4 5 6 7 8 9 0 a b c d e f g h i ",
"j 5 k l - m n o p q r q s t u v ",
"j w x y z A B C D E F G H I J f ",
"K w L M N O P Q R S T U V W P X ",
"Y w L M 5 Z `  ...+.@.#.$.%.&.Z ",
"*.=.-.;.>.,.'.).!.~.{.].^./.(._.",
"*.=.-.;.>.:.'.<.[.}.|.1.2.3.4._.",
"5.6.7.[ 6.:.8.9.0.a.b.c.d.e.f.g.",
"K h.i.j.k.k.l.m.n.o.p.q.r.m.l.s.",
"l.t.u.u.t.l.u.v.w.x.y.x.z.A.t.B.",
"                                "};
