/* XPM */
static char * ContextStack_xpm[] = {
"16 16 121 2",
"  	c None",
". 	c #DBE7F9",
"+ 	c #D0E0F7",
"@ 	c #C4D7F5",
"# 	c #B7CFF2",
"$ 	c #A9C5F1",
"% 	c #CDDCF5",
"& 	c #DFE9F9",
"* 	c #D8E5F9",
"= 	c #C8DAF6",
"- 	c #BAD0F3",
"; 	c #ADC7F1",
"> 	c #B0CAF2",
", 	c #A0BEEE",
"' 	c #95B5E7",
") 	c #C8D5EC",
"! 	c #E2E9F4",
"~ 	c #F7F9FC",
"{ 	c #F0F7FE",
"] 	c #D5E7FF",
"^ 	c #B5D0F7",
"/ 	c #9CB6E1",
"( 	c #6A8DC6",
"_ 	c #8CABDB",
": 	c #C6D5EC",
"< 	c #E6EBF5",
"[ 	c #FEFDFD",
"} 	c #F1F8FF",
"| 	c #CAE0FF",
"1 	c #A6C6F4",
"2 	c #7DA0D8",
"3 	c #8CACDC",
"4 	c #BED0ED",
"5 	c #EDF2FA",
"6 	c #FFFFFF",
"7 	c #F3F9FF",
"8 	c #C8DFFF",
"9 	c #A3C4F6",
"0 	c #7C9FD8",
"a 	c #6C8FC9",
"b 	c #8DACDD",
"c 	c #5F7EB1",
"d 	c #637EAA",
"e 	c #8397B6",
"f 	c #9AA9C0",
"g 	c #9EAFC7",
"h 	c #8EA3C1",
"i 	c #738CB2",
"j 	c #627CA7",
"k 	c #5E7AAA",
"l 	c #BED1EE",
"m 	c #B3C7E5",
"n 	c #A8B9D6",
"o 	c #9BADC7",
"p 	c #90A2BE",
"q 	c #94A6C3",
"r 	c #90A6C9",
"s 	c #86A2CD",
"t 	c #8FAEDC",
"u 	c #E8ECF5",
"v 	c #FFFFFE",
"w 	c #F4FAFF",
"x 	c #CDE3FF",
"y 	c #A6C7F6",
"z 	c #7B9FD9",
"A 	c #668AC5",
"B 	c #8CABDC",
"C 	c #C7D5ED",
"D 	c #7EA1D9",
"E 	c #CAD8EE",
"F 	c #E6ECF5",
"G 	c #F1F7FF",
"H 	c #698CC6",
"I 	c #8DACDC",
"J 	c #829FD0",
"K 	c #B7C8E4",
"L 	c #E8EEF8",
"M 	c #D9EBFF",
"N 	c #B9D4FB",
"O 	c #90AEDF",
"P 	c #7897CA",
"Q 	c #7493C4",
"R 	c #94AED6",
"S 	c #6C87B1",
"T 	c #526B95",
"U 	c #486087",
"V 	c #4B6183",
"W 	c #506586",
"X 	c #5F7598",
"Y 	c #6780A7",
"Z 	c #7B98C5",
"` 	c #C9D6ED",
" .	c #EBF0F8",
"..	c #F8FEFF",
"+.	c #DCEDFF",
"@.	c #BDD7FE",
"#.	c #97B5E4",
"$.	c #6D90CA",
"%.	c #93B5E7",
"&.	c #C5D5ED",
"*.	c #D5E0EF",
"=.	c #E8ECF2",
"-.	c #E2EBF5",
";.	c #C1D8F6",
">.	c #9FBCE8",
",.	c #809FD2",
"'.	c #7091C5",
").	c #96B5E5",
"!.	c #A3AFC4",
"~.	c #DBE4F3",
"{.	c #E8EEF6",
"].	c #DEE8F5",
"^.	c #C0D7F8",
"/.	c #9FBFEE",
"(.	c #7A9CD3",
"_.	c #84A2D0",
":.	c #929190",
"<.	c #9FA3A8",
"[.	c #8B9AB0",
"}.	c #6D82A1",
"|.	c #4B5F7F",
"          . + @ # $             ",
"      % & * = - ; > , '         ",
"      ) ! ~ { ] ^ / ( _         ",
"      : < [ } | 1 2 ( 3         ",
"      4 5 6 7 8 9 0 a b         ",
"      c d e f g h i j k         ",
"      l m n o p q r s t         ",
"      : u v w x y z A B         ",
"      C < [ } | 1 D ( 3         ",
"      E F [ G | 1 D H I         ",
"      J K L 7 M N O P Q         ",
"      R S T U V W X Y Z         ",
"      `  .6 ..+.@.#.$.%.        ",
"      &.*.=.-.;.>.,.'.).        ",
"      !.~.{.].^./.(.a _.        ",
"          :.<.[.}.|.            "};
