/* XPM */
static char * Context_xpm[] = {
"16 16 161 2",
"  	c None",
". 	c #DE1E07",
"+ 	c #E43C2A",
"@ 	c #EA5E52",
"# 	c #E87269",
"$ 	c #E4736D",
"% 	c #784A8A",
"& 	c #896A9E",
"* 	c #D46260",
"= 	c #FEA6A5",
"- 	c #FFB7B8",
"; 	c #FFB9B9",
"> 	c #FFBABB",
", 	c #FBADAE",
"' 	c #835196",
") 	c #B38CC2",
"! 	c #F0CFFD",
"~ 	c #E6CCFA",
"{ 	c #D15353",
"] 	c #FE9793",
"^ 	c #FEAEAF",
"/ 	c #FFB1B1",
"( 	c #FFAFB3",
"_ 	c #D87C34",
": 	c #ECAB70",
"< 	c #835396",
"[ 	c #A176B1",
"} 	c #EEC8FD",
"| 	c #F3CAFF",
"1 	c #F1C8FF",
"2 	c #DFC1F3",
"3 	c #CB5253",
"4 	c #FC8884",
"5 	c #FEA2A3",
"6 	c #FFA1A6",
"7 	c #FA8F35",
"8 	c #FFD683",
"9 	c #E48A3E",
"0 	c #6F4480",
"a 	c #845198",
"b 	c #E1B9F1",
"c 	c #EDBFFE",
"d 	c #EDC0FF",
"e 	c #EBBEFD",
"f 	c #D9B2E8",
"g 	c #C4B3D8",
"h 	c #F97772",
"i 	c #FF8E93",
"j 	c #FB9233",
"k 	c #FFCC6C",
"l 	c #FCBC5A",
"m 	c #88579B",
"n 	c #9F71B1",
"o 	c #E3B4F5",
"p 	c #E6B5FA",
"q 	c #E4B3F7",
"r 	c #D3A7E4",
"s 	c #B997C6",
"t 	c #DF6163",
"u 	c #F6912F",
"v 	c #FFC255",
"w 	c #FFCB56",
"x 	c #DF6813",
"y 	c #804B94",
"z 	c #C392D6",
"A 	c #DEA8F2",
"B 	c #DBA7F0",
"C 	c #C89ADB",
"D 	c #F89022",
"E 	c #FFB43D",
"F 	c #FFBF3C",
"G 	c #E97916",
"H 	c #6B407A",
"I 	c #804A95",
"J 	c #C892DC",
"K 	c #D39AEA",
"L 	c #C18DD3",
"M 	c #F98C16",
"N 	c #FFA724",
"O 	c #FFB322",
"P 	c #EB750B",
"Q 	c #6D427D",
"R 	c #7E4893",
"S 	c #BE84D5",
"T 	c #B980CB",
"U 	c #53538F",
"V 	c #365378",
"W 	c #F98910",
"X 	c #FFA40A",
"Y 	c #FFAC09",
"Z 	c #E96901",
"` 	c #653C74",
" .	c #78438D",
"..	c #9F65B1",
"+.	c #5E5FA5",
"@.	c #29599C",
"#.	c #2A5493",
"$.	c #DF6F04",
"%.	c #FF8600",
"&.	c #FF8C00",
"*.	c #D24C00",
"=.	c #5C2E67",
"-.	c #474D8F",
";.	c #2559A3",
">.	c #2A65BA",
",.	c #1A4895",
"'.	c #146D07",
").	c #516208",
"!.	c #6F6502",
"~.	c #6B5C0B",
"{.	c #1D447C",
"].	c #204F96",
"^.	c #3B7FD4",
"/.	c #377CD6",
"(.	c #125F5D",
"_.	c #14760F",
":.	c #0D7E07",
"<.	c #0F8708",
"[.	c #128F0A",
"}.	c #13950B",
"|.	c #13960B",
"1.	c #119509",
"2.	c #119909",
"3.	c #046D02",
"4.	c #16408A",
"5.	c #58A4EF",
"6.	c #519CEA",
"7.	c #186D65",
"8.	c #219319",
"9.	c #32C028",
"0.	c #33C929",
"a.	c #33CE28",
"b.	c #31D025",
"c.	c #2BCC20",
"d.	c #25C41A",
"e.	c #15A10C",
"f.	c #193D75",
"g.	c #2C63B0",
"h.	c #72BAF4",
"i.	c #1B7266",
"j.	c #3AB031",
"k.	c #51DB47",
"l.	c #56E34B",
"m.	c #57E74C",
"n.	c #53E647",
"o.	c #49DE3D",
"p.	c #32BF29",
"q.	c #087205",
"r.	c #23498B",
"s.	c #1D6B56",
"t.	c #56BE4E",
"u.	c #74E86B",
"v.	c #7FF374",
"w.	c #84F978",
"x.	c #7FF674",
"y.	c #45C53E",
"z.	c #247E20",
"A.	c #47AE41",
"B.	c #54BD4E",
"C.	c #4FBF48",
"D.	c #1F9C1A",
"            . + @ # $           ",
"        % & * = - ; > ,         ",
"      ' ) ! ~ { ] ^ / ( _ :     ",
"    < [ } | 1 2 3 4 5 6 7 8 9   ",
"  0 a b c d e f g   h i j k l   ",
"  m n o p q r s       t u v w x ",
"  y z A B C             D E F G ",
"H I J K L               M N O P ",
"Q R S T U V             W X Y Z ",
"`  ...+.@.#.            $.%.&.*.",
"  =.-.;.>.,.          '.).!.~.  ",
"  {.].^./.(._.:.<.[.}.|.1.2.3.  ",
"    4.5.6.7.8.9.0.a.b.c.d.e.    ",
"    f.g.h.i.j.k.l.m.n.o.p.q.    ",
"        r.s.t.u.v.w.x.y.        ",
"            z.A.B.C.D.          "};
