/* XPM */
static char * EditorPostRendering_xpm[] = {
"24 22 378 2",
"  	c None",
". 	c #785555",
"+ 	c #7B5656",
"@ 	c #C97D7D",
"# 	c #FE9797",
"$ 	c #D98383",
"% 	c #C47777",
"& 	c #ED8A8A",
"* 	c #FF9696",
"= 	c #D87E7E",
"- 	c #4E3030",
"; 	c #995F5F",
"> 	c #A66969",
", 	c #D47D7D",
"' 	c #F28585",
") 	c #FF8585",
"! 	c #F38282",
"~ 	c #DD7D7D",
"{ 	c #AE6767",
"] 	c #593434",
"^ 	c #592F2F",
"/ 	c #BF5E5E",
"( 	c #BA5C5C",
"_ 	c #AF5757",
": 	c #874949",
"< 	c #6C4040",
"[ 	c #8A4A4A",
"} 	c #C65D5D",
"| 	c #EE6969",
"1 	c #D35F5F",
"2 	c #954A4A",
"3 	c #683A3A",
"4 	c #7F3F3F",
"5 	c #A54A4A",
"6 	c #BC5151",
"7 	c #A94E4E",
"8 	c #A54B4B",
"9 	c #D65858",
"0 	c #FC6162",
"a 	c #EC5C5C",
"b 	c #D65454",
"c 	c #D75252",
"d 	c #E75454",
"e 	c #DF5151",
"f 	c #953F3F",
"g 	c #4D2B2B",
"h 	c #201E1E",
"i 	c #2A1F1F",
"j 	c #873737",
"k 	c #E14D4D",
"l 	c #E24848",
"m 	c #DB4747",
"n 	c #D34242",
"o 	c #D63434",
"p 	c #E91F1E",
"q 	c #DD0909",
"r 	c #72060F",
"s 	c #583437",
"t 	c #86342D",
"u 	c #C4332D",
"v 	c #E93432",
"w 	c #F63738",
"x 	c #EA3A3B",
"y 	c #C23D3D",
"z 	c #953B3B",
"A 	c #783131",
"B 	c #682424",
"C 	c #5F1919",
"D 	c #5B1818",
"E 	c #742A2A",
"F 	c #973838",
"G 	c #B12A2A",
"H 	c #D62221",
"I 	c #F21A1A",
"J 	c #EE0E10",
"K 	c #BC000E",
"L 	c #850312",
"M 	c #672A18",
"N 	c #5D3719",
"O 	c #283E61",
"P 	c #253A55",
"Q 	c #332E3D",
"R 	c #70181D",
"S 	c #AC1314",
"T 	c #CE1816",
"U 	c #B71C1B",
"V 	c #7B1A1A",
"W 	c #531919",
"X 	c #7C1D1D",
"Y 	c #BB2222",
"Z 	c #E52424",
"` 	c #CE1E1E",
" .	c #881919",
"..	c #531414",
"+.	c #6F090A",
"@.	c #9F0002",
"#.	c #C40000",
"$.	c #C10401",
"%.	c #82100C",
"&.	c #553117",
"*.	c #857618",
"=.	c #938C18",
"-.	c #345792",
";.	c #4878CD",
">.	c #548DF0",
",.	c #375F96",
"'.	c #312E3E",
").	c #340903",
"!.	c #300603",
"~.	c #830908",
"{.	c #D90A0B",
"].	c #E00202",
"^.	c #D90000",
"/.	c #D00101",
"(.	c #D30000",
"_.	c #E20101",
":.	c #DB0505",
"<.	c #9E0E10",
"[.	c #4B060F",
"}.	c #1B0A0F",
"|.	c #46351C",
"1.	c #927E19",
"2.	c #D9BF0D",
"3.	c #F3D202",
"4.	c #FCD800",
"5.	c #2D4E8A",
"6.	c #3F6FCA",
"7.	c #5192FF",
"8.	c #4388F1",
"9.	c #274D88",
"0.	c #101729",
"a.	c #17242F",
"b.	c #46130F",
"c.	c #8B0000",
"d.	c #E80000",
"e.	c #E00000",
"f.	c #E90000",
"g.	c #D80000",
"h.	c #A70005",
"i.	c #4F151C",
"j.	c #251C17",
"k.	c #3E3C0B",
"l.	c #B6A309",
"m.	c #E6C806",
"n.	c #EFCB03",
"o.	c #F0CA00",
"p.	c #F1CA00",
"q.	c #28467F",
"r.	c #3C71D5",
"s.	c #498DFF",
"t.	c #4992FF",
"u.	c #2957A8",
"v.	c #0F274E",
"w.	c #204D8A",
"x.	c #2A4579",
"y.	c #432947",
"z.	c #82141C",
"A.	c #A20705",
"B.	c #AA0100",
"C.	c #9D0009",
"D.	c #9B1A0C",
"E.	c #97430E",
"F.	c #836F16",
"G.	c #615E0F",
"H.	c #706104",
"I.	c #F4CF00",
"J.	c #FFE200",
"K.	c #F7CC00",
"L.	c #E2BB00",
"M.	c #DCB600",
"N.	c #3F81F4",
"O.	c #3E84FF",
"P.	c #2551A3",
"Q.	c #152F63",
"R.	c #2C6ADD",
"S.	c #2F7AFD",
"T.	c #276BD6",
"U.	c #1D4576",
"V.	c #321C2A",
"W.	c #490904",
"X.	c #452216",
"Y.	c #79681A",
"Z.	c #C4B514",
"`.	c #FFE104",
" +	c #C1A200",
".+	c #856F00",
"++	c #EBC200",
"@+	c #FFD500",
"#+	c #E9C200",
"$+	c #BF9E01",
"%+	c #B29301",
"&+	c #2C4E8F",
"*+	c #3374EF",
"=+	c #2253AE",
"-+	c #14326C",
";+	c #235DCB",
">+	c #256BEF",
",+	c #236DF6",
"'+	c #2473FB",
")+	c #093588",
"!+	c #1F1C10",
"~+	c #B39505",
"{+	c #EBC402",
"]+	c #F7CE02",
"^+	c #FFD700",
"/+	c #B19300",
"(+	c #806B00",
"_+	c #F6CC00",
":+	c #E0BB02",
"<+	c #8C7609",
"[+	c #443B10",
"}+	c #2D2812",
"|+	c #0E234D",
"1+	c #224A97",
"2+	c #2F60C0",
"3+	c #2E539A",
"4+	c #1C2E51",
"5+	c #0D1E41",
"6+	c #1655CD",
"7+	c #1360F6",
"8+	c #0D5EF9",
"9+	c #0D69FF",
"0+	c #00309F",
"a+	c #1D201D",
"b+	c #C8A802",
"c+	c #F8CE00",
"d+	c #F8CD00",
"e+	c #FFE000",
"f+	c #B49500",
"g+	c #5A4B01",
"h+	c #71610E",
"i+	c #988110",
"j+	c #A88D0D",
"k+	c #7A6608",
"l+	c #6B5A06",
"m+	c #0E234C",
"n+	c #2154B8",
"o+	c #2F72F5",
"p+	c #284E99",
"q+	c #162444",
"r+	c #07142E",
"s+	c #0E3C94",
"t+	c #0749CA",
"u+	c #004DE9",
"v+	c #005AFF",
"w+	c #002AA2",
"x+	c #242024",
"y+	c #C5A303",
"z+	c #F3C900",
"A+	c #E8C100",
"B+	c #DCB804",
"C+	c #866F02",
"D+	c #3B3104",
"E+	c #514713",
"F+	c #9C8512",
"G+	c #D2B009",
"H+	c #AA8D00",
"I+	c #9E8200",
"J+	c #2165EB",
"K+	c #1D6AFF",
"L+	c #0F46AF",
"M+	c #061F4F",
"N+	c #0D1A33",
"O+	c #072A6F",
"P+	c #0043C6",
"Q+	c #0059FF",
"R+	c #002BA0",
"S+	c #242023",
"T+	c #C4A204",
"U+	c #EFC600",
"V+	c #CCAB02",
"W+	c #7B690E",
"X+	c #352E0D",
"Y+	c #3A3107",
"Z+	c #CFAD06",
"`+	c #FACF02",
" @	c #D9B400",
".@	c #8A7300",
"+@	c #715E00",
"@@	c #1861EF",
"#@	c #0859F7",
"$@	c #013DB3",
"%@	c #01297A",
"&@	c #053AA3",
"*@	c #123885",
"=@	c #193469",
"-@	c #0C3D99",
";@	c #001F6C",
">@	c #1D1C25",
",@	c #977D05",
"'@	c #7D690A",
")@	c #5B5018",
"!@	c #BEA010",
"~@	c #937B07",
"{@	c #6A5700",
"]@	c #D1AE00",
"^@	c #F6CE00",
"/@	c #D5B200",
"(@	c #6C5900",
"_@	c #4D3F00",
":@	c #0C2E6F",
"<@	c #093384",
"[@	c #003BB4",
"}@	c #003193",
"|@	c #003EB6",
"1@	c #093FAB",
"2@	c #113E98",
"3@	c #0D40A4",
"4@	c #082564",
"5@	c #23211C",
"6@	c #826E0E",
"7@	c #8C760D",
"8@	c #917A0E",
"9@	c #E3BE07",
"0@	c #A98D02",
"a@	c #776200",
"b@	c #E0B900",
"c@	c #C2A200",
"d@	c #5D4D00",
"e@	c #000A23",
"f@	c #0037A2",
"g@	c #0037A1",
"h@	c #002D86",
"i@	c #00349A",
"j@	c #0041C5",
"k@	c #004CE5",
"l@	c #064EDC",
"m@	c #092D7A",
"n@	c #292518",
"o@	c #8D7812",
"p@	c #CAA906",
"q@	c #E9C000",
"r@	c #EDC500",
"s@	c #977E00",
"t@	c #5E4E00",
"u@	c #876F00",
"v@	c #342A00",
"w@	c #00153E",
"x@	c #001A4F",
"y@	c #003190",
"z@	c #0040BD",
"A@	c #0049D9",
"B@	c #0050EC",
"C@	c #002794",
"D@	c #222029",
"E@	c #B29305",
"F@	c #D4AF00",
"G@	c #CFAC00",
"H@	c #E9C100",
"I@	c #917900",
"J@	c #312900",
"K@	c #292200",
"L@	c #262000",
"M@	c #00143A",
"N@	c #002B7E",
"O@	c #0047D1",
"P@	c #0051EF",
"Q@	c #002998",
"R@	c #21212B",
"S@	c #B29204",
"T@	c #E1BA00",
"U@	c #C8A700",
"V@	c #7D6800",
"W@	c #000209",
"X@	c #002161",
"Y@	c #0041BE",
"Z@	c #00227B",
"`@	c #1E202B",
" #	c #957B05",
".#	c #A38700",
"+#	c #816B00",
"@#	c #473B00",
"##	c #002774",
"$#	c #001857",
"%#	c #191C2A",
"&#	c #736005",
"*#	c #504100",
"=#	c #151100",
"                    . +                         ",
"                @ # $ % & * = -                 ",
"              ; > , ' ) ! ~ { ] ^               ",
"        / ( _ : < [ } | 1 2 3 4 5 6 7 8         ",
"    9 0 a b c d e f g h i j k l m n o p q r     ",
"  s t u v w x y z A B C D E F G H I J K L M N   ",
"O P Q R S T U V W X Y Z `  ...+.@.#.$.%.&.*.=.  ",
"-.;.>.,.'.).!.~.{.].^./.(._.:.<.[.}.|.1.2.3.4.  ",
"5.6.7.8.9.0.a.b.c.^.d.e.f.g.h.i.j.k.l.m.n.o.p.  ",
"q.r.s.t.u.v.w.x.y.z.A.B.C.D.E.F.G.H.I.J.K.L.M.  ",
"    N.O.P.Q.R.S.T.U.V.W.X.Y.Z.`. +.+++@+#+$+%+  ",
"    &+*+=+-+;+>+,+'+)+!+~+{+]+^+/+(+_+:+<+[+}+  ",
"|+1+2+3+4+5+6+7+8+9+0+a+b+c+d+e+f+g+h+i+j+k+l+  ",
"m+n+o+p+q+r+s+t+u+v+w+x+y+z+A+B+C+D+E+F+G+H+I+  ",
"    J+K+L+M+N+O+P+Q+R+S+T+U+V+W+X+Y+Z+`+ @.@+@  ",
"    @@#@$@%@&@*@=@-@;@>@,@'@)@!@~@{@]@^@/@(@_@  ",
"  :@<@P+[@}@|@1@2@3@4@5@6@7@8@9@0@a@b@c@.+d@    ",
"    e@f@g@h@i@j@k@l@m@n@o@p@q@r@s@t@f+u@v@      ",
"        w@x@y@z@A@B@C@D@E@F@G@H@I@J@K@L@        ",
"            M@N@O@P@Q@R@S@T@U@V@t@              ",
"            W@X@P+Y@Z@`@ #.#+#@#                ",
"                  ##$#%#&#*#=#                  "};
