/* XPM */
static char * EntityTemplate_xpm[] = {
"16 16 115 2",
"  	c None",
". 	c #F3C483",
"+ 	c #F0D3AD",
"@ 	c #EAE3D2",
"# 	c #FDE398",
"$ 	c #F1C281",
"% 	c #EEB76B",
"& 	c #F1BF79",
"* 	c #F3CC9A",
"= 	c #EFDEC3",
"- 	c #EFE8CC",
"; 	c #F5E4AC",
"> 	c #FBD881",
", 	c #FAD477",
"' 	c #EDB867",
") 	c #EFB86F",
"! 	c #EAA546",
"~ 	c #EEAF5C",
"{ 	c #F3DCBC",
"] 	c #F1E6C9",
"^ 	c #F4E7B8",
"/ 	c #F9DB8C",
"( 	c #FAD57A",
"_ 	c #FBD272",
": 	c #FBCD6A",
"< 	c #F9C254",
"[ 	c #EAB55B",
"} 	c #F1C58E",
"| 	c #F4E4C4",
"1 	c #F7EDC3",
"2 	c #F8DF97",
"3 	c #FAD780",
"4 	c #FAD274",
"5 	c #FBD172",
"6 	c #F9CB6B",
"7 	c #F8C055",
"8 	c #F7B847",
"9 	c #F6B341",
"0 	c #F1BE71",
"a 	c #F0F2F3",
"b 	c #EFD694",
"c 	c #FADB88",
"d 	c #F9D57A",
"e 	c #FAD270",
"f 	c #FBD173",
"g 	c #F8C96B",
"h 	c #F7BD55",
"i 	c #F5B546",
"j 	c #F4AF41",
"k 	c #F3A938",
"l 	c #F2A330",
"m 	c #EFB053",
"n 	c #BABEBB",
"o 	c #F4C87B",
"p 	c #FBD26D",
"q 	c #FACF73",
"r 	c #F8C96C",
"s 	c #F5BB55",
"t 	c #F3B246",
"u 	c #F1AC40",
"v 	c #F0A538",
"w 	c #EE9F2E",
"x 	c #EB9C2A",
"y 	c #E89823",
"z 	c #F0AE4E",
"A 	c #A9A193",
"B 	c #F9C97F",
"C 	c #F8C76A",
"D 	c #F4B955",
"E 	c #F1AF46",
"F 	c #EFA940",
"G 	c #EDA237",
"H 	c #EB9D2F",
"I 	c #E99727",
"J 	c #E79523",
"K 	c #E79D28",
"L 	c #F2B457",
"M 	c #A6876D",
"N 	c #F6BD64",
"O 	c #F0AD46",
"P 	c #EEA740",
"Q 	c #EBA037",
"R 	c #E89B30",
"S 	c #E69729",
"T 	c #E49526",
"U 	c #E49625",
"V 	c #EAA639",
"W 	c #F1A72F",
"X 	c #E9A94B",
"Y 	c #BD8857",
"Z 	c #EFAC4A",
"` 	c #EAA038",
" .	c #E79A31",
"..	c #E3962B",
"+.	c #E39426",
"@.	c #E39425",
"#.	c #F1A93B",
"$.	c #DB9E3A",
"%.	c #93641E",
"&.	c #D38D49",
"*.	c #E89E34",
"=.	c #E4992D",
"-.	c #E29528",
";.	c #E69B30",
">.	c #F0A83D",
",.	c #BE8834",
"'.	c #57390C",
").	c #DC8E42",
"!.	c #E39929",
"~.	c #EEA83E",
"{.	c #E0A33F",
"].	c #9B6F25",
"^.	c #EAA449",
"/.	c #C89134",
"(.	c #684A15",
"                                ",
"                    . + @ #     ",
"        $ %   & * = - ; > ,     ",
"    ' ) ! ~ { ] ^ / ( _ : <     ",
"    [ } | 1 2 3 4 5 6 7 8 9     ",
"  0 a b c d e f g h i j k l     ",
"  m n o p q r s t u v w x y     ",
"  z A B C D E F G H I J K       ",
"  L M N O P Q R S T U V W       ",
"  X Y Z `  ...+.@.#.$.%.        ",
"    &.*.=.-.;.>.,.'.            ",
"    ).!.~.{.].                  ",
"    ^./.(.                      ",
"                                ",
"                                ",
"                                "};
