/* XPM */
static char * game_mouse_xpm[] = {
"24 22 224 2",
"  	c None",
". 	c #A0333F",
"+ 	c #B72A38",
"@ 	c #D42E38",
"# 	c #DB3A42",
"$ 	c #DD3B43",
"% 	c #D42F3A",
"& 	c #B72A37",
"* 	c #A03742",
"= 	c #B12532",
"- 	c #DB464E",
"; 	c #E16269",
"> 	c #E2636A",
", 	c #E5666D",
"' 	c #E1696E",
") 	c #E36A6F",
"! 	c #E66D72",
"~ 	c #E76F75",
"{ 	c #E67078",
"] 	c #DD545A",
"^ 	c #B21E2E",
"/ 	c #8D3241",
"( 	c #D1343E",
"_ 	c #E0585C",
": 	c #E25D65",
"< 	c #E15C64",
"[ 	c #E05D64",
"} 	c #E25F66",
"| 	c #E5636A",
"1 	c #E3676C",
"2 	c #E4676C",
"3 	c #E5686D",
"4 	c #E46E72",
"5 	c #E7737B",
"6 	c #E87379",
"7 	c #CD414D",
"8 	c #992A3A",
"9 	c #973542",
"0 	c #D83940",
"a 	c #DE585C",
"b 	c #E0585B",
"c 	c #E16265",
"d 	c #F4CED1",
"e 	c #F8DFDF",
"f 	c #F9DFDF",
"g 	c #F2B4B6",
"h 	c #EDAAAD",
"i 	c #FAE2E3",
"j 	c #FBE1E2",
"k 	c #F8D5D6",
"l 	c #E77F86",
"m 	c #E8737B",
"n 	c #E77B7E",
"o 	c #D34D57",
"p 	c #942C3C",
"q 	c #D02C38",
"r 	c #DF5056",
"s 	c #DC5559",
"t 	c #DF555D",
"u 	c #EEACB0",
"v 	c #FFFFFF",
"w 	c #F5C7CA",
"x 	c #F1BCBD",
"y 	c #EFB1B4",
"z 	c #E57078",
"A 	c #E7757D",
"B 	c #E77C7E",
"C 	c #D3454C",
"D 	c #BC2732",
"E 	c #DD5056",
"F 	c #DE4F55",
"G 	c #DD5156",
"H 	c #DD5458",
"I 	c #EFB0B0",
"J 	c #F5C7C9",
"K 	c #EFBBBD",
"L 	c #F0B3B5",
"M 	c #E57074",
"N 	c #E67279",
"O 	c #E8767B",
"P 	c #E6757B",
"Q 	c #AA313B",
"R 	c #D43742",
"S 	c #DA4C52",
"T 	c #DD4E54",
"U 	c #DB5356",
"V 	c #EA9FA1",
"W 	c #F4C7CA",
"X 	c #F2BBBE",
"Y 	c #D87D7F",
"Z 	c #C02429",
"` 	c #C2262B",
" .	c #C83336",
"..	c #C63234",
"+.	c #A52734",
"@.	c #DB414B",
"#.	c #DC4951",
"$.	c #DB4C52",
"%.	c #E67C82",
"&.	c #F3C4C7",
"*.	c #E8AEB1",
"=.	c #E6A9AE",
"-.	c #D67176",
";.	c #D0666C",
">.	c #E4A7AA",
",.	c #E3A4A8",
"'.	c #E4A4A8",
").	c #CA5357",
"!.	c #BD1E23",
"~.	c #BA1F23",
"{.	c #B92023",
"].	c #B91F22",
"^.	c #A8292E",
"/.	c #BE202C",
"(.	c #DB454E",
"_.	c #DC464F",
":.	c #DA4B51",
"<.	c #DC656B",
"[.	c #E39599",
"}.	c #DE8C90",
"|.	c #DD8D90",
"1.	c #DD9093",
"2.	c #DD8E91",
"3.	c #C54A4D",
"4.	c #B82023",
"5.	c #A9272C",
"6.	c #C6282D",
"7.	c #DB434D",
"8.	c #DD4650",
"9.	c #CF3D40",
"0.	c #BD1B20",
"a.	c #D77878",
"b.	c #D27679",
"c.	c #B62123",
"d.	c #AB272B",
"e.	c #C7292E",
"f.	c #DC4249",
"g.	c #D84149",
"h.	c #C02226",
"i.	c #B81F22",
"j.	c #D67879",
"k.	c #D07779",
"l.	c #B42223",
"m.	c #B22423",
"n.	c #B12322",
"o.	c #A72729",
"p.	c #BA242D",
"q.	c #D1383B",
"r.	c #BA2124",
"s.	c #D5787D",
"t.	c #CE7878",
"u.	c #B02221",
"v.	c #A6272A",
"w.	c #9D2A31",
"x.	c #BB2023",
"y.	c #B72123",
"z.	c #B52022",
"A.	c #D47A7C",
"B.	c #CD7878",
"C.	c #B12221",
"D.	c #AD2321",
"E.	c #AB2420",
"F.	c #9E292F",
"G.	c #B52123",
"H.	c #B52223",
"I.	c #B42122",
"J.	c #C86266",
"K.	c #C56C6B",
"L.	c #AA2323",
"M.	c #AA2322",
"N.	c #A92223",
"O.	c #A82024",
"P.	c #AA1F23",
"Q.	c #8C323B",
"R.	c #A8282E",
"S.	c #B12423",
"T.	c #AB1916",
"U.	c #FDFAFA",
"V.	c #B03438",
"W.	c #9B262E",
"X.	c #B2211F",
"Y.	c #AC2321",
"Z.	c #C36462",
"`.	c #BA5557",
" +	c #A71E22",
".+	c #A62124",
"++	c #A52225",
"@+	c #923541",
"#+	c #AD2421",
"$+	c #A82123",
"%+	c #A71D21",
"&+	c #B33C40",
"*+	c #DCABAC",
"=+	c #FAF7F7",
"-+	c #FBF8F9",
";+	c #DEB1B1",
">+	c #B23E41",
",+	c #A62023",
"'+	c #A52023",
")+	c #A41F22",
"!+	c #A51F22",
"~+	c #A31F22",
"{+	c #88343F",
"]+	c #91313C",
"^+	c #A52226",
"/+	c #A72024",
"(+	c #A51A1E",
"_+	c #A21518",
":+	c #A01417",
"<+	c #A2191C",
"[+	c #A12022",
"}+	c #9C2223",
"|+	c #8B313C",
"1+	c #9F252D",
"2+	c #A52124",
"3+	c #A02122",
"4+	c #9F2122",
"5+	c #9D2223",
"6+	c #98272A",
"7+	c #902B34",
"8+	c #9E2222",
"9+	c #9E2223",
"0+	c #9D2224",
"a+	c #902B31",
"                                                ",
"                . + @ # $ % & *                 ",
"            = - ; > , ' ) ! ~ { ] ^             ",
"        / ( _ : < [ } | 1 2 3 4 5 6 7 8         ",
"      9 0 a b c d e f g h i j k l m n o p       ",
"      q r s t u v v v w x v v v y z A B C       ",
"    D E F G H I v v v J K v v v L M N O P Q     ",
"    R S T F U V v v v W X v v v Y Z Z `  ...    ",
"  +.@.#.$.T r %.&.*.=.-.;.>.,.'.).!.~.~.{.].^.  ",
"  /.(._.:.T T <.[.}.|.1.1.|.2.2.3.{.{.4.4.4.5.  ",
"  6.7.(.8.9.0.a.v v v v v v v v b.c.c.c.c.c.d.  ",
"  e.f.g.h.!.i.j.v v v v v v v v k.c.c.l.m.n.o.  ",
"  p.q.r.{.{.].s.v v v v v v v v t.u.u.u.u.u.v.  ",
"  w.x.y.y.c.z.A.v v v v v v v v B.u.C.D.D.E.F.  ",
"    G.c.c.H.I.J.v v v v v v v v K.L.M.N.O.P.Q.  ",
"    R.S.n.u.u.T.U.v v v v v v v V.O.O.O.O.W.    ",
"      X.u.u.u.Y.Z.v v v v v v `. +O..+.+++      ",
"      @+#+L.$+$+%+&+*+=+-+;+>+,+'+)+!+~+{+      ",
"        ]+^+O.O.O./+(+_+:+<+!+)+[+[+}+|+        ",
"            1+2+,+'+)+~+~+3+4+4+5+6+            ",
"                7+8+9+9+9+9+0+a+                ",
"                                                "};
