/* XPM */
static char * Image_xpm[] = {
"16 16 165 2",
"  	c None",
". 	c #C7CBCE",
"+ 	c #B7BDC0",
"@ 	c #B3B9BD",
"# 	c #B4BBBF",
"$ 	c #B4BABF",
"% 	c #B4BABE",
"& 	c #B2B8BD",
"* 	c #B2B8BC",
"= 	c #B6BBC0",
"- 	c #C5CACD",
"; 	c #D9DCDE",
"> 	c #D4DDE2",
", 	c #C3CED5",
"' 	c #C2CED5",
") 	c #C0CDD4",
"! 	c #BFCDD4",
"~ 	c #BDCBD2",
"{ 	c #BCC9D1",
"] 	c #BBC9D1",
"^ 	c #B8C7CF",
"/ 	c #B8C6CF",
"( 	c #B6C6CF",
"_ 	c #C8D4DA",
": 	c #D5D9DB",
"< 	c #FAFAFA",
"[ 	c #8CA9BD",
"} 	c #6393B8",
"| 	c #6F9BBE",
"1 	c #7FA7C7",
"2 	c #93B6D1",
"3 	c #A9C6DD",
"4 	c #C0D6E8",
"5 	c #D3E5F2",
"6 	c #FFFFFF",
"7 	c #C0CED5",
"8 	c #F5F6F6",
"9 	c #DCDEE0",
"0 	c #87A6B9",
"a 	c #6594B8",
"b 	c #588BB3",
"c 	c #6B9ABC",
"d 	c #81A8C7",
"e 	c #98B9D3",
"f 	c #ACC6DA",
"g 	c #C9DFEF",
"h 	c #FCFCFC",
"i 	c #BECCD4",
"j 	c #D9DBDD",
"k 	c #F9FAF9",
"l 	c #87A5BA",
"m 	c #5085AE",
"n 	c #588BB2",
"o 	c #6896BA",
"p 	c #7BA4C4",
"q 	c #8FB2CE",
"r 	c #A5C2D8",
"s 	c #7F8F9D",
"t 	c #C1C4C7",
"u 	c #F9F9F9",
"v 	c #FEFEFE",
"w 	c #BFCCD4",
"x 	c #F4F5F6",
"y 	c #CDD0D2",
"z 	c #5186AE",
"A 	c #6392B7",
"B 	c #6090B6",
"C 	c #709CBF",
"D 	c #94B6D0",
"E 	c #97B8D2",
"F 	c #9BB6CA",
"G 	c #B6D0E4",
"H 	c #CDD8E0",
"I 	c #D9E5EE",
"J 	c #A3B9C8",
"K 	c #CBCED1",
"L 	c #86A5BA",
"M 	c #5287AF",
"N 	c #5A8CB3",
"O 	c #6796BA",
"P 	c #76A1C1",
"Q 	c #86ACC9",
"R 	c #95B8D3",
"S 	c #657C8C",
"T 	c #96B4CA",
"U 	c #9DBDD6",
"V 	c #94AFC2",
"W 	c #CCD0D2",
"X 	c #86A5B9",
"Y 	c #5488B0",
"Z 	c #5C8EB4",
"` 	c #739FC0",
" .	c #7EA6C5",
"..	c #87ADCB",
"+.	c #88AECB",
"@.	c #85ACC9",
"#.	c #CACED0",
"$.	c #88A6B8",
"%.	c #6593A8",
"&.	c #6896A9",
"*.	c #6190AB",
"=.	c #5287B0",
"-.	c #5489B6",
";.	c #6192B9",
">.	c #6B98BB",
",.	c #6F9CBF",
"'.	c #719DC0",
").	c #6E9BBD",
"!.	c #84A3B9",
"~.	c #9BB3AF",
"{.	c #D5DF7E",
"].	c #D3DD81",
"^.	c #D3DE80",
"/.	c #D6DF80",
"(.	c #C4D386",
"_.	c #A5BE92",
":.	c #7FA5A4",
"<.	c #5A8CB7",
"[.	c #5F90B6",
"}.	c #5B8EB4",
"|.	c #7E9FB5",
"1.	c #97AFAE",
"2.	c #BECC75",
"3.	c #BDCC78",
"4.	c #BFCD77",
"5.	c #BACA79",
"6.	c #80A497",
"7.	c #4F84B1",
"8.	c #7B9CB4",
"9.	c #CBCFD1",
"0.	c #92ABAB",
"a.	c #A4B665",
"b.	c #A4B769",
"c.	c #A4B669",
"d.	c #A5B768",
"e.	c #92AC74",
"f.	c #7D9DB2",
"g.	c #C9CDD0",
"h.	c #F6F6F7",
"i.	c #91AAAE",
"j.	c #90AA73",
"k.	c #91AB77",
"l.	c #91AB76",
"m.	c #90AA74",
"n.	c #8AA6A6",
"o.	c #F2F3F3",
"p.	c #D7DBDD",
"q.	c #CDD8DE",
"r.	c #BBCAD5",
"s.	c #BBC9D4",
"t.	c #BAC8D3",
"u.	c #BAC8D2",
"v.	c #BAC7D2",
"w.	c #B9C7D1",
"x.	c #C7D3D9",
"y.	c #D4D9DB",
"z.	c #BBC0C4",
"A.	c #8A9196",
"B.	c #A9AFB3",
"C.	c #A4AAAE",
"D.	c #A7ADB1",
"E.	c #A7ACB1",
"F.	c #A6ACB1",
"G.	c #A8AEB2",
"H.	c #BBC0C3",
"  .   + @ # @ $ % & % * =   -   ",
"  ; > , ' ) ! ~ { ] ^ / ( _ :   ",
"  < [ } | 1 2 3 4 5 6 6 6 7 8   ",
"  9 0 a b c d e f g 6 h 6 i j   ",
"  k l m n o p q r s t u v w x   ",
"  y l z A B C D E F G H I J K   ",
"  6 L z M N O P Q R S T U V 6   ",
"  W X z Y Y Z O `  ...+.@.[ #.  ",
"  6 $.%.&.*.=.-.;.>.,.'.).!.6   ",
"  W ~.{.].^./.(._.:.<.[.}.|.#.  ",
"  6 1.2.3.3.3.3.3.4.5.6.7.8.6   ",
"  9.0.a.b.b.b.b.b.b.c.d.e.f.g.  ",
"  h.i.j.k.k.k.k.k.l.k.k.m.n.o.  ",
"  p.q.r.s.s.s.t.t.t.u.v.w.x.y.  ",
"  z.A.B.C.D.C.E.E.C.F.C.G.A.H.  ",
"                                "};
