/* XPM */
static char * MeshEntity_xpm[] = {
"16 16 182 2",
"  	c None",
". 	c #FFDF90",
"+ 	c #FFDE8F",
"@ 	c #F7D689",
"# 	c #EED293",
"$ 	c #FDD98A",
"% 	c #FFDE8D",
"& 	c #FED370",
"* 	c #F8CC6A",
"= 	c #F2C96D",
"- 	c #EFCB7B",
"; 	c #F2D28B",
"> 	c #F6DC9B",
", 	c #FBE3A4",
"' 	c #F3D68F",
") 	c #F0C870",
"! 	c #F8CB68",
"~ 	c #FFD571",
"{ 	c #E1A942",
"] 	c #F6C357",
"^ 	c #FED171",
"/ 	c #F3C96E",
"( 	c #FADA8B",
"_ 	c #FFE397",
": 	c #FFE196",
"< 	c #FFE199",
"[ 	c #FEE29A",
"} 	c #FFE39E",
"| 	c #F1CF82",
"1 	c #EFC163",
"2 	c #FDC54E",
"3 	c #F5BF53",
"4 	c #DFA83F",
"5 	c #D7951E",
"6 	c #E5A52B",
"7 	c #F5BC4F",
"8 	c #FFCA62",
"9 	c #FDD075",
"0 	c #FEDD96",
"a 	c #FFDE97",
"b 	c #FFDC91",
"c 	c #FFDE96",
"d 	c #FEDA8B",
"e 	c #FECF73",
"f 	c #FDCD72",
"g 	c #FCD78D",
"h 	c #FADA90",
"i 	c #F8D885",
"j 	c #DA9824",
"k 	c #D8A338",
"l 	c #D89C30",
"m 	c #DA9520",
"n 	c #E7A533",
"o 	c #F9BB51",
"p 	c #FFC967",
"q 	c #FDCD73",
"r 	c #FFCC74",
"s 	c #FECC73",
"t 	c #FCCC75",
"u 	c #FBD079",
"v 	c #F9CF70",
"w 	c #F2C251",
"x 	c #E2AF36",
"y 	c #F4CB66",
"z 	c #DD9725",
"A 	c #E0AA3C",
"B 	c #ECBB50",
"C 	c #E2AE43",
"D 	c #D6921F",
"E 	c #D98911",
"F 	c #E79F2E",
"G 	c #F9BE63",
"H 	c #FACE7B",
"I 	c #F6C45A",
"J 	c #F5BE41",
"K 	c #EAB43A",
"L 	c #D8A233",
"M 	c #D9AA3E",
"N 	c #DFB75A",
"O 	c #F5C862",
"P 	c #D68B19",
"Q 	c #DFA232",
"R 	c #E9B041",
"S 	c #E9B243",
"T 	c #E8B143",
"U 	c #E0A432",
"V 	c #D99236",
"W 	c #F0C65C",
"X 	c #F1BF5F",
"Y 	c #D79B19",
"Z 	c #DDA731",
"` 	c #EABC53",
" .	c #F7CE69",
"..	c #FED774",
"+.	c #F1CB6D",
"@.	c #F3C04E",
"#.	c #E2931E",
"$.	c #DE9E2C",
"%.	c #E7AA3C",
"&.	c #E6A73A",
"*.	c #E6A739",
"=.	c #E19A27",
"-.	c #EFBC43",
";.	c #EEB035",
">.	c #EDBA46",
",.	c #FFD364",
"'.	c #FFD466",
").	c #FFD468",
"!.	c #FFD569",
"~.	c #F1C762",
"{.	c #F5C258",
"].	c #E18A1B",
"^.	c #DC9D2E",
"/.	c #E6AB41",
"(.	c #E7AD42",
"_.	c #E6AB42",
":.	c #DD9325",
"<.	c #EDB739",
"[.	c #EEAC2E",
"}.	c #F4C656",
"|.	c #FFD876",
"1.	c #FED675",
"2.	c #FFD56F",
"3.	c #F1C45D",
"4.	c #F4C159",
"5.	c #E59D46",
"6.	c #E3A753",
"7.	c #E5AF57",
"8.	c #E3A138",
"9.	c #E3A33D",
"0.	c #E3A43D",
"a.	c #DE982F",
"b.	c #EFBD4D",
"c.	c #EFB23E",
"d.	c #F4C356",
"e.	c #FFD168",
"f.	c #FED16A",
"g.	c #FFD062",
"h.	c #F1C667",
"i.	c #F3BD52",
"j.	c #C3750F",
"k.	c #E0973A",
"l.	c #E5B469",
"m.	c #E2A341",
"n.	c #E09E3B",
"o.	c #DA8E27",
"p.	c #EBB43D",
"q.	c #EEAA34",
"r.	c #F4BD49",
"s.	c #FFD16C",
"t.	c #FED16D",
"u.	c #FECF69",
"v.	c #F7D07D",
"w.	c #EFC16B",
"x.	c #F0AD47",
"y.	c #DD871D",
"z.	c #E0A457",
"A.	c #E2AB58",
"B.	c #D9932C",
"C.	c #ECBA4B",
"D.	c #EEAE3F",
"E.	c #F4BD50",
"F.	c #FDD178",
"G.	c #F4CE83",
"H.	c #F0B54E",
"I.	c #F0AA32",
"J.	c #EBA834",
"K.	c #AC6812",
"L.	c #E3A148",
"M.	c #DA9847",
"N.	c #ECBA50",
"O.	c #EDA842",
"P.	c #EEC477",
"Q.	c #F1BA5E",
"R.	c #EFA835",
"S.	c #ECA531",
"T.	c #E09949",
"U.	c #E9AD3E",
"V.	c #F2B45C",
"W.	c #EFA22B",
"X.	c #E7A235",
"Y.	c #D3AD6C",
"                                ",
"          . + @ # $ %           ",
"    & * = - ; > , ' ) ! ~       ",
"{ ] ^ / ( _ : < [ } } | 1 2 3   ",
"4 5 6 7 8 9 0 a b c d e f g h i ",
"j k l m n o p q r s t u v w x y ",
"z A B C D E F G H I J K L M N O ",
"P Q R S T U V W X Y Z `  ...+.@.",
"#.$.%.&.*.%.=.-.;.>.,.'.).!.~.{.",
"].^././.(._.:.<.[.}.|.1.2.2.3.4.",
"5.6.7.8.9.0.a.b.c.d.e.e.f.g.h.i.",
"  j.k.l.m.n.o.p.q.r.s.t.u.v.w.x.",
"      y.z.A.B.C.D.E.F.G.H.I.J.  ",
"        K.L.M.N.O.P.Q.R.S.      ",
"            T.U.V.W.X.          ",
"              Y.                "};
