/* XPM */
static char * ParticleGenerator_xpm[] = {
"16 16 125 2",
"  	c None",
". 	c #C64C10",
"+ 	c #E89265",
"@ 	c #AD5627",
"# 	c #E8AA87",
"$ 	c #F0AA84",
"% 	c #E59C76",
"& 	c #9C4F25",
"* 	c #E39B71",
"= 	c #E69769",
"- 	c #E79C6C",
"; 	c #DE8F63",
"> 	c #BF6433",
", 	c #D28152",
"' 	c #DD8552",
") 	c #EBCB60",
"! 	c #E39857",
"~ 	c #CB7747",
"{ 	c #CE7A4A",
"] 	c #B86333",
"^ 	c #D87640",
"/ 	c #E4B03E",
"( 	c #F1CD44",
"_ 	c #DF9441",
": 	c #D97A43",
"< 	c #A85629",
"[ 	c #DB7C44",
"} 	c #A95425",
"| 	c #C8652D",
"1 	c #D6832C",
"2 	c #EFBF27",
"3 	c #EDBD27",
"4 	c #E3A529",
"5 	c #D16730",
"6 	c #D16D33",
"7 	c #D16E2E",
"8 	c #CC6630",
"9 	c #AE501E",
"0 	c #94461C",
"a 	c #CC5E24",
"b 	c #E19F1C",
"c 	c #ECB81A",
"d 	c #EDBA1A",
"e 	c #D9911C",
"f 	c #D37E1F",
"g 	c #E6B01A",
"h 	c #D27D1E",
"i 	c #B7531E",
"j 	c #B94B13",
"k 	c #BD4A12",
"l 	c #B74913",
"m 	c #B94711",
"n 	c #E7AE09",
"o 	c #E8B00A",
"p 	c #E9B00A",
"q 	c #E9B109",
"r 	c #E8AF08",
"s 	c #E8B108",
"t 	c #BE4C11",
"u 	c #C64D13",
"v 	c #D0691B",
"w 	c #D57F21",
"x 	c #E1A01D",
"y 	c #E9AE17",
"z 	c #E8AF14",
"A 	c #E8B013",
"B 	c #E8B012",
"C 	c #E8AF12",
"D 	c #E9AE19",
"E 	c #E9AF22",
"F 	c #D2711B",
"G 	c #C14D13",
"H 	c #C94E12",
"I 	c #D87D23",
"J 	c #E9AF37",
"K 	c #E9B13D",
"L 	c #EAB342",
"M 	c #EAB545",
"N 	c #EBB746",
"O 	c #EAB645",
"P 	c #EAB442",
"Q 	c #E9B23F",
"R 	c #E9AF39",
"S 	c #D97E24",
"T 	c #CD5B23",
"U 	c #D36E26",
"V 	c #ECB949",
"W 	c #ECB94F",
"X 	c #EDBE5A",
"Y 	c #EEC365",
"Z 	c #EFC66E",
"` 	c #EFC66F",
" .	c #EEC469",
"..	c #EDBF5E",
"+.	c #ECBA52",
"@.	c #ECBA4C",
"#.	c #D5752B",
"$.	c #CD5C24",
"%.	c #CF602B",
"&.	c #E4A458",
"*.	c #F1D07F",
"=.	c #F2D390",
"-.	c #F3D59A",
";.	c #F3D69C",
">.	c #F3D69B",
",.	c #F2D496",
"'.	c #F2D387",
").	c #E4A55B",
"!.	c #C36A3F",
"~.	c #E19466",
"{.	c #EDC497",
"].	c #F4DBAB",
"^.	c #F6E2B0",
"/.	c #F6E1B0",
"(.	c #F5DEAD",
"_.	c #EFC99C",
":.	c #E19668",
"<.	c #6F442E",
"[.	c #A86544",
"}.	c #CF825C",
"|.	c #E2936C",
"1.	c #E2946D",
"2.	c #D58761",
"3.	c #AF6A48",
"4.	c #875338",
"                                ",
"              . +               ",
"            @ # $ %             ",
"          & * = - ;   >         ",
"          , ' ) ! ~   {         ",
"        ] ^ / ( _ : < [ }       ",
"        | 1 2 3 4 5 6 7 8       ",
"    9 0 a b c c d e f g h i     ",
"  j k l m n o o o p q r s t     ",
"  u v w x y z A B C z D E F G   ",
"  H I J K L M N N O P Q R S H   ",
"  T U V W X Y Z `  ...+.@.#.$.  ",
"    %.&.*.=.-.;.>.;.,.'.).%.    ",
"      !.~.{.].^./.(._.:.!.      ",
"        <.[.}.|.1.2.3.4.        ",
"                                "};
