/* XPM */
static char * pause_xpm[] = {
"24 22 100 2",
"  	c None",
". 	c #007DFC",
"+ 	c #0077F8",
"@ 	c #0078F9",
"# 	c #0072F4",
"$ 	c #006BEF",
"% 	c #006DF0",
"& 	c #0065EA",
"* 	c #0067EC",
"= 	c #0062E8",
"- 	c #005BE3",
"; 	c #005CE3",
"> 	c #000F8D",
", 	c #000683",
"' 	c #000D8C",
") 	c #0054DB",
"! 	c #000E8D",
"~ 	c #000684",
"{ 	c #005CE4",
"] 	c #0056DF",
"^ 	c #0057E0",
"/ 	c #000881",
"( 	c #000076",
"_ 	c #000780",
": 	c #004FD6",
"< 	c #004FD7",
"[ 	c #000880",
"} 	c #004FDA",
"| 	c #0050DB",
"1 	c #00087C",
"2 	c #000071",
"3 	c #00077A",
"4 	c #0049D2",
"5 	c #00077B",
"6 	c #000070",
"7 	c #004AD6",
"8 	c #004BD6",
"9 	c #004BD7",
"0 	c #000776",
"a 	c #00006B",
"b 	c #000675",
"c 	c #0044CD",
"d 	c #0045CD",
"e 	c #0045D1",
"f 	c #0045D2",
"g 	c #0046D3",
"h 	c #000671",
"i 	c #000066",
"j 	c #000670",
"k 	c #003FC9",
"l 	c #0040C9",
"m 	c #003FCE",
"n 	c #0040CE",
"o 	c #00066C",
"p 	c #000061",
"q 	c #00056B",
"r 	c #003AC4",
"s 	c #003AC5",
"t 	c #00056C",
"u 	c #003ACA",
"v 	c #003BCB",
"w 	c #000568",
"x 	c #00005D",
"y 	c #000567",
"z 	c #0035C1",
"A 	c #0034C5",
"B 	c #0034C6",
"C 	c #000564",
"D 	c #000058",
"E 	c #000462",
"F 	c #0030BC",
"G 	c #000463",
"H 	c #002FC1",
"I 	c #002FC2",
"J 	c #00045F",
"K 	c #000055",
"L 	c #00045E",
"M 	c #002BB8",
"N 	c #0029BD",
"O 	c #00035A",
"P 	c #00004F",
"Q 	c #000259",
"R 	c #0025B3",
"S 	c #0025B4",
"T 	c #000359",
"U 	c #0024B9",
"V 	c #000F7B",
"W 	c #000C74",
"X 	c #000E7A",
"Y 	c #0022B3",
"Z 	c #000E7B",
"` 	c #001DB4",
" .	c #001EB7",
"..	c #001FB8",
"+.	c #0018B0",
"@.	c #0012AB",
"#.	c #0012AC",
"$.	c #000DA7",
"%.	c #0007A3",
"&.	c #0006A3",
"                  . . . . . .                   ",
"            + @ @ @ @ @ @ @ @ @ @ +             ",
"          # # # # # # # # # # # # # #           ",
"      $ % % % % % % % % % % % % % % % % $       ",
"    & * * * * * * * * * * * * * * * * * * &     ",
"    = = = = = = = = = = = = = = = = = = = =     ",
"  - - - - - ; > , ' ) - - ) ! ~ ! { - - - - -   ",
"  ] ] ] ] ] ^ / ( _ : ] ] < [ ( [ ^ ] ] ] ] ]   ",
"} | | | | | | 1 2 3 4 | | 4 5 6 5 | | | | | | } ",
"7 8 8 8 8 8 9 0 a b c 8 8 d b a b 9 8 8 8 8 8 7 ",
"e f f f f f g h i j k f f l j i j g f f f f f e ",
"m m m m m m n o p q r m m s t p q n m m m m m m ",
"u u u u u u v w x y z u u z y x y v u u u u u u ",
"A A A A A A B C D E F A A F G D E B A A A A A A ",
"  H H H H H I J K L M H H M J K J I H H H H H   ",
"  N N N N N N O P Q R N N S O P T N N N N N N   ",
"  U U U U U U V W X Y U U Y Z W Z U U U U U U   ",
"    ` ` ` ` `  ... .` ` ` `  ... .` ` ` ` `     ",
"      +.+.+.+.+.+.+.+.+.+.+.+.+.+.+.+.+.+.      ",
"        @.#.#.#.#.#.#.#.#.#.#.#.#.#.#.@.        ",
"          $.$.$.$.$.$.$.$.$.$.$.$.$.$.          ",
"              %.&.&.&.&.&.&.&.&.%.              "};
