/* XPM */
static char * pin_xpm[] = {
"24 22 97 2",
"  	c None",
". 	c #562F31",
"+ 	c #A6272B",
"@ 	c #AD151A",
"# 	c #C1161D",
"$ 	c #B7151B",
"% 	c #A61B20",
"& 	c #821E22",
"* 	c #5D6464",
"= 	c #84383B",
"- 	c #EB1920",
"; 	c #E81D24",
"> 	c #E71E25",
", 	c #E71E24",
"' 	c #E71D24",
") 	c #F31F26",
"! 	c #A60409",
"~ 	c #826F70",
"{ 	c #741B1E",
"] 	c #EE1920",
"^ 	c #E81E25",
"/ 	c #EB1E25",
"( 	c #EA1E25",
"_ 	c #EF1E26",
": 	c #D2161C",
"< 	c #472C2D",
"[ 	c #6A3C3C",
"} 	c #EC1D24",
"| 	c #E61D24",
"1 	c #DA1B22",
"2 	c #B0161A",
"3 	c #C1171E",
"4 	c #E91D24",
"5 	c #AB282D",
"6 	c #A72327",
"7 	c #ED1E25",
"8 	c #C7181E",
"9 	c #0A0101",
"0 	c #000000",
"a 	c #44080A",
"b 	c #C91A21",
"c 	c #B72026",
"d 	c #FF2028",
"e 	c #380608",
"f 	c #090101",
"g 	c #C3181E",
"h 	c #E91E25",
"i 	c #D2171D",
"j 	c #7E4446",
"k 	c #B22025",
"l 	c #F41F26",
"m 	c #921216",
"n 	c #180202",
"o 	c #DF1C22",
"p 	c #E81D25",
"q 	c #D01A20",
"r 	c #922327",
"s 	c #AC151A",
"t 	c #160202",
"u 	c #4B090B",
"v 	c #C31D23",
"w 	c #C41319",
"x 	c #F61F27",
"y 	c #F21F26",
"z 	c #E51D24",
"A 	c #922125",
"B 	c #58494A",
"C 	c #D70F16",
"D 	c #B01015",
"E 	c #822C2F",
"F 	c #EB1A22",
"G 	c #EA1D25",
"H 	c #CB161C",
"I 	c #343636",
"J 	c #AC1C21",
"K 	c #E01820",
"L 	c #732B2D",
"M 	c #663739",
"N 	c #DC1D23",
"O 	c #E51C23",
"P 	c #9C2023",
"Q 	c #661114",
"R 	c #FF2128",
"S 	c #DB1E24",
"T 	c #6E5556",
"U 	c #7E8D8C",
"V 	c #920006",
"W 	c #F81D25",
"X 	c #6C1B1D",
"Y 	c #7B4B4D",
"Z 	c #EA181F",
"` 	c #A1090D",
" .	c #B1141A",
"..	c #844648",
"+.	c #702B2D",
"@.	c #815859",
"#.	c #4C4949",
"                                                ",
"                  . + @ # $ % & *               ",
"                = - ; > , > ' ) ! ~             ",
"              { ] ' > ^ / ( > ' _ : <           ",
"            [ } | ^ | 1 2 3 4 | ^ ' 5           ",
"            6 ^ > 7 8 9 0 0 a } ; > b           ",
"            c ^ ' d e 0 0 0 f g h ' i j         ",
"            k ^ ' l m 0 0 0 n o p ^ q           ",
"            r ; > ^ ' s t u ; ' ^ > v           ",
"              w _ ' ^ ( x y z > ' } A           ",
"              B C h ^ ^ > ' ^ ' y D             ",
"                E F ' ^ ^ > ' G H I             ",
"                  J ' p ^ ; > K L               ",
"                  M N ^ ^ ^ O P                 ",
"                    Q R | > S T                 ",
"                    U V _ W X                   ",
"                      Y Z `                     ",
"                         ...                    ",
"                        +.@.                    ",
"                        #.                      ",
"                                                ",
"                                                "};
