/* XPM */
static char * play_xpm[] = {
"24 22 91 1",
" 	c None",
".	c #00FC2F",
"+	c #00F72F",
"@	c #00F22E",
"#	c #00F22D",
"$	c #00EC2D",
"%	c #00ED2D",
"&	c #00E62B",
"*	c #00E82C",
"=	c #00E32C",
"-	c #00DD2A",
";	c #00E22B",
">	c #00DE2A",
",	c #00DE2B",
"'	c #009F1C",
")	c #005C0D",
"!	c #00A61E",
"~	c #00E22C",
"{	c #00DF2B",
"]	c #00D829",
"^	c #009F1D",
"/	c #003F07",
"(	c #003E07",
"_	c #005B0E",
":	c #00C425",
"<	c #00D229",
"[	c #00D329",
"}	c #009B1C",
"|	c #004108",
"1	c #004308",
"2	c #004809",
"3	c #007313",
"4	c #00BD24",
"5	c #00D82A",
"6	c #00CE27",
"7	c #00981B",
"8	c #004408",
"9	c #00490A",
"0	c #004D0A",
"a	c #00500B",
"b	c #008B19",
"c	c #00C626",
"d	c #00CE28",
"e	c #00C827",
"f	c #00951B",
"g	c #004E0A",
"h	c #00530C",
"i	c #00580D",
"j	c #006710",
"k	c #00921A",
"l	c #00C927",
"m	c #00C326",
"n	c #00921B",
"o	c #005A0D",
"p	c #00600E",
"q	c #006910",
"r	c #008918",
"s	c #00C527",
"t	c #00BE26",
"u	c #008E1A",
"v	c #00550C",
"w	c #007915",
"x	c #00B323",
"y	c #00B924",
"z	c #008B1A",
"A	c #004B0A",
"B	c #006911",
"C	c #009F1E",
"D	c #00B925",
"E	c #00B424",
"F	c #008819",
"G	c #004F0B",
"H	c #009C1D",
"I	c #00AF22",
"J	c #008518",
"K	c #003B06",
"L	c #007E17",
"M	c #00AF23",
"N	c #00B023",
"O	c #00AA22",
"P	c #008118",
"Q	c #007214",
"R	c #00AB22",
"S	c #00A421",
"T	c #00A521",
"U	c #00A722",
"V	c #009F20",
"W	c #00991F",
"X	c #009A20",
"Y	c #00951E",
"Z	c #008F1E",
"         ......         ",
"      ++++++++++++      ",
"     @############@     ",
"   $%%%%%%%%%%%%%%%%$   ",
"  &******************&  ",
"  =====-;=============  ",
" >,,,,,')!~{,,,,,,,,,,> ",
" ]]]]]]^/(_:]]]]]]]]]]] ",
"<[[[[[[}/|12345[[[[[[[[<",
"66666667/|890abcd6666666",
"eeeeeeef/|89ghijkleeeeee",
"mmmmmmmn/|89ghopqrsmmmmm",
"tttttttu/|89ghvwxttttttt",
"yyyyyyyz/|82ABCtDyyyyyyy",
" EEEEEEF/|1GHxEEEEEEEEE ",
" IIIIIIJKALMNIIIIIIIIII ",
" OOOOOOPQROOOOOOOOOOOOO ",
"  SSSSSTUSSSSSSSSSSSSS  ",
"   VVVVVVVVVVVVVVVVVV   ",
"    WXXXXXXXXXXXXXXW    ",
"     YYYYYYYYYYYYYY     ",
"       ZZZZZZZZZZ       "};
