/* XPM */
static char * record_xpm[] = {
"24 22 225 2",
"  	c None",
". 	c #CC0F0F",
"+ 	c #CE1313",
"@ 	c #CD1414",
"# 	c #CB0202",
"$ 	c #DC3F3F",
"% 	c #E96F6F",
"& 	c #EF8686",
"* 	c #F29393",
"= 	c #F49999",
"- 	c #F49797",
"; 	c #F29090",
"> 	c #EF8383",
", 	c #E96D6D",
"' 	c #DB3D3D",
") 	c #CB0303",
"! 	c #C90000",
"~ 	c #D62626",
"{ 	c #F49D9D",
"] 	c #F59F9F",
"^ 	c #EE8282",
"/ 	c #ED7A7A",
"( 	c #EC7979",
"_ 	c #EC7777",
": 	c #EB7676",
"< 	c #EB7474",
"[ 	c #EC7474",
"} 	c #ED7979",
"| 	c #CC0303",
"1 	c #E25353",
"2 	c #FAAEAE",
"3 	c #EF8181",
"4 	c #EA6F6F",
"5 	c #EC7272",
"6 	c #EC7373",
"7 	c #EC7171",
"8 	c #EB7070",
"9 	c #EB6E6E",
"0 	c #EB6D6D",
"a 	c #EA6A6A",
"b 	c #E96464",
"c 	c #ED7575",
"d 	c #FAA4A4",
"e 	c #E25050",
"f 	c #CA0000",
"g 	c #E96969",
"h 	c #F49595",
"i 	c #EB6C6C",
"j 	c #EC6D6D",
"k 	c #EC6C6C",
"l 	c #EB6B6B",
"m 	c #EB6A6A",
"n 	c #EB6868",
"o 	c #EB6767",
"p 	c #EA6464",
"q 	c #E96161",
"r 	c #EA6262",
"s 	c #F38989",
"t 	c #E86565",
"u 	c #DF4848",
"v 	c #F49090",
"w 	c #EA6868",
"x 	c #EA6767",
"y 	c #EC6868",
"z 	c #EC6767",
"A 	c #EC6666",
"B 	c #EB6565",
"C 	c #EB6363",
"D 	c #EB6262",
"E 	c #EA6060",
"F 	c #E95E5E",
"G 	c #E95B5B",
"H 	c #E85A5A",
"I 	c #F38686",
"J 	c #DF4545",
"K 	c #D11919",
"L 	c #F18282",
"M 	c #EA6161",
"N 	c #EC6363",
"O 	c #EC6262",
"P 	c #EC6161",
"Q 	c #EB6060",
"R 	c #EB5F5F",
"S 	c #EB5D5D",
"T 	c #EA5B5B",
"U 	c #EA5A5A",
"V 	c #E95757",
"W 	c #E85555",
"X 	c #EB6161",
"Y 	c #F07B7B",
"Z 	c #D11818",
"` 	c #DD3C3C",
" .	c #EA5C5C",
"..	c #EA5D5D",
"+.	c #EC5E5E",
"@.	c #EC5D5D",
"#.	c #EC5C5C",
"$.	c #EC5B5B",
"%.	c #EC5A5A",
"&.	c #EB5959",
"*.	c #EA5858",
"=.	c #E95454",
"-.	c #E74444",
";.	c #E43434",
">.	c #EF5D5D",
",.	c #DC3030",
"'.	c #CA0808",
").	c #EA6565",
"!.	c #EE6F6F",
"~.	c #E85454",
"{.	c #EA5757",
"].	c #EB5858",
"^.	c #EC5959",
"/.	c #EC5858",
"(.	c #EC5656",
"_.	c #EC5353",
":.	c #EB4E4E",
"<.	c #E83C3C",
"[.	c #E52929",
"}.	c #E31A1A",
"|.	c #E21919",
"1.	c #E01616",
"2.	c #E83838",
"3.	c #E74C4C",
"4.	c #CA0707",
"5.	c #CA0909",
"6.	c #F17A7A",
"7.	c #E95151",
"8.	c #EA5252",
"9.	c #EA5353",
"0.	c #EB5454",
"a.	c #EC5555",
"b.	c #EC5757",
"c.	c #EC5454",
"d.	c #EC4C4C",
"e.	c #EC4545",
"f.	c #EB3D3D",
"g.	c #E93232",
"h.	c #E72626",
"i.	c #E61C1C",
"j.	c #E51C1C",
"k.	c #E31B1B",
"l.	c #EE5C5C",
"m.	c #CB0808",
"n.	c #F26767",
"o.	c #E63333",
"p.	c #E63232",
"q.	c #E73939",
"r.	c #E93A3A",
"s.	c #E93838",
"t.	c #E93333",
"u.	c #E92C2C",
"v.	c #E82727",
"w.	c #E92626",
"x.	c #E92323",
"y.	c #E92121",
"z.	c #E82121",
"A.	c #E82020",
"B.	c #E61F1F",
"C.	c #E61E1E",
"D.	c #E51D1D",
"E.	c #E41C1C",
"F.	c #E42424",
"G.	c #F16464",
"H.	c #C70909",
"I.	c #F06060",
"J.	c #E62828",
"K.	c #E81F1F",
"L.	c #E92222",
"M.	c #EA2323",
"N.	c #E71F1F",
"O.	c #E51E1E",
"P.	c #E41B1B",
"Q.	c #E93535",
"R.	c #E61D1D",
"S.	c #E72020",
"T.	c #EB2424",
"U.	c #EB2525",
"V.	c #EC2525",
"W.	c #C50606",
"X.	c #E03939",
"Y.	c #EE4C4C",
"Z.	c #E41A1A",
"`.	c #EC2626",
" +	c #ED2626",
".+	c #D31919",
"++	c #F05D5D",
"@+	c #EE2828",
"#+	c #C60404",
"$+	c #E44545",
"%+	c #EE4B4B",
"&+	c #ED2727",
"*+	c #E34545",
"=+	c #C70404",
"-+	c #CD0A0A",
";+	c #F06868",
">+	c #EC3C3C",
",+	c #EF6767",
"'+	c #CC0909",
")+	c #CF0F0F",
"!+	c #EE6363",
"~+	c #F05050",
"{+	c #E81E1E",
"]+	c #E82626",
"^+	c #E13939",
"/+	c #F56E6E",
"(+	c #F04B4B",
"_+	c #E91E1E",
":+	c #EA2121",
"<+	c #EA2222",
"[+	c #E03838",
"}+	c #CC0808",
"|+	c #C40000",
"1+	c #D00C0C",
"2+	c #F47676",
"3+	c #F25F5F",
"4+	c #EE4141",
"5+	c #E85050",
"6+	c #CF0C0C",
"7+	c #C50000",
"8+	c #C30000",
"9+	c #D62525",
"0+	c #DB3434",
"a+	c #DF3A3A",
"b+	c #C20000",
"                  . + @ @ + .                   ",
"            # $ % & * = - ; > , ' )             ",
"        ! ~ { ] ^ / ( _ : < [ } - - ~ !         ",
"      | 1 2 3 4 5 6 5 7 8 9 0 a b c d e )       ",
"    f g h 8 i 0 0 j k k l m n o p q r s t !     ",
"    u v w x n n y y y z A B C D E F G H I J     ",
"  K L k M r C C N N N O P Q R S T U V W X Y Z   ",
"  ` I G  ...S S +.+.+.@.#.$.%.&.&.*.=.-.;.>.,.  ",
"'.).!.~.{.{.].^.^.^.^././.(._.:.<.[.}.|.1.2.3.4.",
"5.6.+.7.8.9.0.a.b.c.d.e.f.g.h.i.j.j.k.}.|.[.l.m.",
"m.n.o.p.q.r.s.t.u.v.w.x.y.y.z.A.B.C.D.E.}.F.G.H.",
"'.I.J.}.j.D.C.K.z.L.M.M.M.M.L.z.A.N.O.D.P.J.I.'.",
"'.8.Q.P.R.B.S.z.L.T.U.V.V.U.T.L.z.S.B.R.P.Q.8.'.",
"W.X.Y.Z.C.N.z.M.T.U.`. + +`.U.T.M.z.N.C.Z.Y.X.  ",
"  .+++h.B.S.z.M.T.V. +@+@+ +V.T.M.z.S.B.h.++.+  ",
"  #+$+%+C.S.z.M.T.`.&+@+@+&+`.T.M.z.S.C.%+*+=+  ",
"    -+;+>+N.z.M.T.U.`.&+&+`.U.T.M.z.N.>+,+'+    ",
"      )+!+~+w.{+L.T.U.`.`.U.T.L.{+]+~+!+)+      ",
"        '+^+/+(+L._+:+<+<+:+_+y.(+/+[+}+        ",
"          |+1+7.2+3+(+4+4+(+3+2+5+6+7+          ",
"              8+}+9+0+a+a+0+9+}+b+              ",
"                                                "};
