/* XPM */
static char * redo_xpm[] = {
"24 22 132 2",
"  	c None",
". 	c #507CD2",
"+ 	c #4D7AD3",
"@ 	c #4A77D3",
"# 	c #4E7BD5",
"$ 	c #4F7DD2",
"% 	c #4C76C4",
"& 	c #507CD4",
"* 	c #4976D6",
"= 	c #4876D5",
"- 	c #4775D5",
"; 	c #4775D6",
"> 	c #4675D5",
", 	c #4575D5",
"' 	c #4575D6",
") 	c #4778D7",
"! 	c #507ED6",
"~ 	c #4670C1",
"{ 	c #4C78CC",
"] 	c #4C78D5",
"^ 	c #4976D5",
"/ 	c #4676D6",
"( 	c #4576D6",
"_ 	c #4676D7",
": 	c #487AD8",
"< 	c #4A7AD3",
"[ 	c #4878D3",
"} 	c #4B77CB",
"| 	c #4A77D6",
"1 	c #4776D6",
"2 	c #4677D7",
"3 	c #4577D7",
"4 	c #4578D8",
"5 	c #4578D7",
"6 	c #4477D7",
"7 	c #4D80DB",
"8 	c #3F69B9",
"9 	c #3B69C3",
"0 	c #477ADB",
"a 	c #487BD6",
"b 	c #4C79D5",
"c 	c #4876D6",
"d 	c #4876D2",
"e 	c #406BBF",
"f 	c #3D66B6",
"g 	c #3D69BD",
"h 	c #406EC8",
"i 	c #4476D6",
"j 	c #4478D7",
"k 	c #4479D8",
"l 	c #4579D9",
"m 	c #4B7FDA",
"n 	c #4574CD",
"o 	c #467BDA",
"p 	c #497DD7",
"q 	c #4A77D1",
"r 	c #4876D7",
"s 	c #4773C9",
"t 	c #4072D0",
"u 	c #467ADA",
"v 	c #457AD9",
"w 	c #457BDA",
"x 	c #477BDA",
"y 	c #477CDA",
"z 	c #467CDB",
"A 	c #467CDC",
"B 	c #4A7ED9",
"C 	c #4572CA",
"D 	c #3F71CE",
"E 	c #4278DA",
"F 	c #4178DA",
"G 	c #4179DA",
"H 	c #4179DB",
"I 	c #437BDB",
"J 	c #447DDB",
"K 	c #467EDD",
"L 	c #4B81DA",
"M 	c #4D79D6",
"N 	c #4775D3",
"O 	c #2F65CA",
"P 	c #2967D5",
"Q 	c #2A69D5",
"R 	c #2C6AD7",
"S 	c #2D6CD7",
"T 	c #2E6CD8",
"U 	c #2F6ED9",
"V 	c #3973D7",
"W 	c #4B78D6",
"X 	c #4876D1",
"Y 	c #2F68CE",
"Z 	c #2B6AD7",
"` 	c #2D6CD8",
" .	c #2E6ED8",
"..	c #2F6FD9",
"+.	c #3070DA",
"@.	c #3071DA",
"#.	c #3875D8",
"$.	c #4777D6",
"%.	c #3F6CBF",
"&.	c #2F6BD5",
"*.	c #2C6CD8",
"=.	c #3172DB",
"-.	c #3373DC",
";.	c #3475DC",
">.	c #3476DD",
",.	c #3C79DB",
"'.	c #4A78D7",
").	c #4777D7",
"!.	c #316CD5",
"~.	c #2F6ED8",
"{.	c #3171DA",
"].	c #3373DB",
"^.	c #3476DC",
"/.	c #3777DD",
"(.	c #377ADE",
"_.	c #387BDF",
":.	c #397CDF",
"<.	c #407EDD",
"[.	c #4A79D7",
"}.	c #4475D7",
"|.	c #4274D4",
"1.	c #1D54CC",
"2.	c #255BCA",
"3.	c #1850CA",
"4.	c #1B53CB",
"5.	c #265CC2",
"6.	c #2058CD",
"7.	c #235CCC",
"8.	c #1F57CC",
"9.	c #2C65CD",
"0.	c #2A5FC4",
"a.	c #346AC6",
"                                                ",
"              . + @ @ # $ %                     ",
"          & * = - ; > , ' ) ! ~                 ",
"      { ] ^ = - ; / ( , _ ( ( : <           [   ",
"    } | ^ = 1 1 > , , / 2 3 4 5 6 7 8   9 0 a   ",
"    b ^ = c d e f   g h i 4 j k l l m n o o p   ",
"  q | = r s               t u l v w x y z A B   ",
"  @ * c C                   D E F G H I J K L   ",
"  M = N                       O P Q R S T U V   ",
"  W ; X                       Y Z `  ...+.@.#.  ",
"  c $.%.                    &.*.U @.=.-.;.>.,.  ",
"  '.).                    !.~.{.].^./.(._.:.<.  ",
"  [.}.                                          ",
"  |.1.                                          ",
"  2.3.                                          ",
"    4.5.                                        ",
"    6.7.                                        ",
"      8.                                        ",
"      9.0.                                      ",
"        a.                                      ",
"                                                ",
"                                                "};
