/* XPM */
static char * replay_xpm[] = {
"24 22 356 2",
"  	c None",
". 	c #2A47CA",
"+ 	c #4964D7",
"@ 	c #5570E8",
"# 	c #526DE2",
"$ 	c #3A55CC",
"% 	c #2D4DD2",
"& 	c #4667E0",
"* 	c #7992EC",
"= 	c #94AAF1",
"- 	c #96ADF2",
"; 	c #97AEF2",
"> 	c #97ADF1",
", 	c #95ABF2",
"' 	c #89A1F0",
") 	c #5B78E4",
"! 	c #2B4FD9",
"~ 	c #3559E2",
"{ 	c #728FEE",
"] 	c #A0B6F2",
"^ 	c #9BB5F2",
"/ 	c #9AB6F3",
"( 	c #9AB7F3",
"_ 	c #9BB8F4",
": 	c #9BB8F3",
"< 	c #9BB6F3",
"[ 	c #A0B7F2",
"} 	c #93ABF1",
"| 	c #4267E8",
"1 	c #2443CC",
"2 	c #1637C8",
"3 	c #4265E4",
"4 	c #839FEF",
"5 	c #8CAAF1",
"6 	c #85A9F1",
"7 	c #87ADEF",
"8 	c #9FBEF2",
"9 	c #ADC8F4",
"0 	c #9FBFF1",
"a 	c #87AFEE",
"b 	c #87AFF2",
"c 	c #8CAFF2",
"d 	c #8CACF2",
"e 	c #90ABF1",
"f 	c #6383EB",
"g 	c #1F44DA",
"h 	c #0B2BBC",
"i 	c #3057E6",
"j 	c #7B99EE",
"k 	c #789DEF",
"l 	c #7CA4EF",
"m 	c #B0C9F3",
"n 	c #EFF4FE",
"o 	c #F2F8FE",
"p 	c #F1F7FE",
"q 	c #ECF4FD",
"r 	c #AEC9EF",
"s 	c #79A6EB",
"t 	c #7AA7F1",
"u 	c #7AA2F0",
"v 	c #7B9DEE",
"w 	c #5B7DEA",
"x 	c #1035D3",
"y 	c #1D46DF",
"z 	c #6789EB",
"A 	c #638EEC",
"B 	c #82A8EE",
"C 	c #D9E6FA",
"D 	c #F6FAFF",
"E 	c #C2D5E8",
"F 	c #9DBFE2",
"G 	c #8DBAE3",
"H 	c #8DBBE5",
"I 	c #9FC5E8",
"J 	c #C8DDF0",
"K 	c #FEFFFF",
"L 	c #A8C4E7",
"M 	c #639DEC",
"N 	c #6A9DF1",
"O 	c #6A96EF",
"P 	c #6E92EC",
"Q 	c #3E64E7",
"R 	c #0327CA",
"S 	c #082FD1",
"T 	c #476EE6",
"U 	c #5581EA",
"V 	c #6D98EB",
"W 	c #E1EBFC",
"X 	c #E7F1FB",
"Y 	c #7AA6D1",
"Z 	c #4598E2",
"` 	c #319DF5",
" .	c #249EFA",
"..	c #1F9FFC",
"+.	c #209EF9",
"@.	c #2B98EE",
"#.	c #4897DB",
"$.	c #5398DD",
"%.	c #58A0F3",
"&.	c #5899F2",
"*.	c #5991F0",
"=.	c #5988EC",
"-.	c #5A81E9",
";.	c #1B45DF",
">.	c #1A41D9",
",.	c #416EE6",
"'.	c #487CE8",
").	c #B1CAF3",
"!.	c #EEF4FD",
"~.	c #5990C6",
"{.	c #1582E3",
"].	c #1699FB",
"^.	c #17A1FF",
"/.	c #18A3FF",
"(.	c #19A3FF",
"_.	c #18A2FF",
":.	c #169CFD",
"<.	c #1893F9",
"[.	c #2B91F5",
"}.	c #3B8DEF",
"|.	c #488DF0",
"1.	c #4782EC",
"2.	c #4977E8",
"3.	c #365EE3",
"4.	c #052BD0",
"5.	c #1E49E2",
"6.	c #3367E5",
"7.	c #447CE4",
"8.	c #EDF5FF",
"9.	c #8AACD1",
"0.	c #1177D7",
"a.	c #1998FB",
"b.	c #19A2FF",
"c.	c #189DFC",
"d.	c #7BBFF7",
"e.	c #8AB5E5",
"f.	c #1E74E1",
"g.	c #377CEC",
"h.	c #376EE8",
"i.	c #325EE4",
"j.	c #0E36D5",
"k.	c #0829C1",
"l.	c #1A49E1",
"m.	c #205BE3",
"n.	c #5D8DE5",
"o.	c #FBFFFF",
"p.	c #3576BD",
"q.	c #198DF3",
"r.	c #199EFE",
"s.	c #1BA4FF",
"t.	c #1CA5FF",
"u.	c #1BA5FF",
"v.	c #3AABF7",
"w.	c #DCEEFC",
"x.	c #F2FBFF",
"y.	c #548DD3",
"z.	c #1A69E3",
"A.	c #2666E6",
"B.	c #2457E1",
"C.	c #1039D7",
"D.	c #092DD2",
"E.	c #1748E1",
"F.	c #1857E3",
"G.	c #709AE6",
"H.	c #EBF2FA",
"I.	c #2A76C5",
"J.	c #1B92F8",
"K.	c #1EA3FF",
"L.	c #22A9FF",
"M.	c #25ABFF",
"N.	c #27ACFF",
"O.	c #28ADFF",
"P.	c #28ACFF",
"Q.	c #1CA2F7",
"R.	c #CDE9FC",
"S.	c #EAF6FF",
"T.	c #E6F3FE",
"U.	c #D4E3F7",
"V.	c #3674D4",
"W.	c #1B5FE4",
"X.	c #1C52E1",
"Y.	c #0F39DA",
"Z.	c #0829C2",
"`.	c #1647E1",
" +	c #1957E3",
".+	c #5E8EE2",
"++	c #F8FCFF",
"@+	c #347BC6",
"#+	c #2398F7",
"$+	c #29AAFE",
"%+	c #2EB1FF",
"&+	c #32B4FF",
"*+	c #35B6FF",
"=+	c #36B6FF",
"-+	c #35B5FF",
";+	c #2EAFFC",
">+	c #A5DAF9",
",+	c #ECF8FF",
"'+	c #E7F5FE",
")+	c #E8F2FF",
"!+	c #A1BBE5",
"~+	c #1F5BD6",
"{+	c #1B51E0",
"]+	c #0E37D4",
"^+	c #1342E0",
"/+	c #1B56E3",
"(+	c #356FDC",
"_+	c #F0F6FF",
":+	c #7FABD6",
"<+	c #2893EC",
"[+	c #36AFFD",
"}+	c #3CB9FF",
"|+	c #40BDFF",
"1+	c #43BFFF",
"2+	c #45C0FF",
"3+	c #42BFFF",
"4+	c #75CBF9",
"5+	c #F2FCFF",
"6+	c #F5FEFF",
"7+	c #E9F6FF",
"8+	c #EBF6FF",
"9+	c #F5FDFF",
"0+	c #5A7ECD",
"a+	c #174ADB",
"b+	c #0C35D7",
"c+	c #0F39D8",
"d+	c #1B52E1",
"e+	c #2766E0",
"f+	c #AFC8EE",
"g+	c #EEF6FE",
"h+	c #4392D2",
"i+	c #40AEF7",
"j+	c #49BEFE",
"k+	c #4EC6FF",
"l+	c #51CAFF",
"m+	c #52CCFF",
"n+	c #49BCF2",
"o+	c #3B9CCD",
"p+	c #4B95C0",
"q+	c #E3F0F9",
"r+	c #B7CDE3",
"s+	c #1758A6",
"t+	c #1C54B4",
"u+	c #1649C1",
"v+	c #1746DD",
"w+	c #092FD0",
"x+	c #0B31D3",
"y+	c #1B4DE1",
"z+	c #2665E3",
"A+	c #558CDD",
"B+	c #E6F1FC",
"C+	c #D6E8F7",
"D+	c #67B1E2",
"E+	c #4DB8F3",
"F+	c #5BCBFE",
"G+	c #60D1FF",
"H+	c #61D4FF",
"I+	c #5FD2FF",
"J+	c #52C7FA",
"K+	c #74C8F3",
"L+	c #D9EFFC",
"M+	c #E0ECF5",
"N+	c #4884BF",
"O+	c #307FE6",
"P+	c #286CE7",
"Q+	c #1F55E1",
"R+	c #113DDE",
"S+	c #1543DE",
"T+	c #2C67E5",
"U+	c #357BE5",
"V+	c #649AD6",
"W+	c #EDF6FE",
"X+	c #EFF8FE",
"Y+	c #AED7EC",
"Z+	c #70C1E7",
"`+	c #69C9EF",
" @	c #6DCEF2",
".@	c #78CEF0",
"+@	c #BBE4F7",
"@@	c #EEF9FE",
"#@	c #E3F1F9",
"$@	c #6B9DC7",
"%@	c #3F8EE0",
"&@	c #3B85EC",
"*@	c #2F6EE6",
"=@	c #1D51E2",
"-@	c #092DD0",
";@	c #092CCA",
">@	c #2257E6",
",@	c #3F7FE9",
"'@	c #4590E9",
")@	c #60A0DA",
"!@	c #B0CFE5",
"~@	c #EAF4F9",
"{@	c #FFFFFF",
"]@	c #F4FDFF",
"^@	c #E8F3F6",
"/@	c #AECDDB",
"(@	c #65A2CA",
"_@	c #4C9DE0",
":@	c #4C99EF",
"<@	c #4085EB",
"[@	c #2E67E7",
"}@	c #0F39D5",
"|@	c #0C31C5",
"1@	c #2E68E8",
"2@	c #4D92EC",
"3@	c #5BA7F0",
"4@	c #64B3EA",
"5@	c #66AED5",
"6@	c #7BB6CC",
"7@	c #96C4D0",
"8@	c #96C5CF",
"9@	c #7EB7C5",
"0@	c #69B0CA",
"a@	c #6CBCE4",
"b@	c #67BAF2",
"c@	c #5CABF2",
"d@	c #5198EE",
"e@	c #3D7AE9",
"f@	c #1744D9",
"g@	c #0E33C7",
"h@	c #2B63E3",
"i@	c #5399F0",
"j@	c #6BB9F4",
"k@	c #79CFF8",
"l@	c #83DBF7",
"m@	c #8AE5F6",
"n@	c #90EBF6",
"o@	c #8FE9F9",
"p@	c #86DFFB",
"q@	c #7BD1F8",
"r@	c #6EBDF5",
"s@	c #5BA4F0",
"t@	c #3A77EB",
"u@	c #1643D2",
"v@	c #163FCB",
"w@	c #3876EE",
"x@	c #62ADF4",
"y@	c #7CCFF8",
"z@	c #8DE5FB",
"A@	c #94EFFE",
"B@	c #8EE8FC",
"C@	c #81D5F9",
"D@	c #6BB9F5",
"E@	c #498CF0",
"F@	c #2152DC",
"G@	c #0C2CAD",
"H@	c #0F38C7",
"I@	c #2357DB",
"J@	c #336DE0",
"K@	c #3A76E2",
"L@	c #3772E0",
"M@	c #2A60DE",
"N@	c #1745D3",
"O@	c #0625AF",
"                  . + @ # $                     ",
"            % & * = - ; > , ' ) !               ",
"          ~ { ] ^ / ( _ _ : < [ } | 1           ",
"      2 3 4 5 6 7 8 9 9 0 a b c d e f g         ",
"    h i j k l m n o p p o q r s t u v w x       ",
"    y z A B C D E F G H I J K L M N O P Q R     ",
"  S T U V W X Y Z `  ...+.@.#.$.%.&.*.=.-.;.    ",
"  >.,.'.).!.~.{.].^./.(.(._.:.<.[.}.|.1.2.3.4.  ",
"  5.6.7.8.9.0.a.b.(.(.(.(.(.(.c.d.e.f.g.h.i.j.  ",
"k.l.m.n.o.p.q.r.(.s.t.t.u.s.(.v.w.x.y.z.A.B.C.  ",
"D.E.F.G.H.I.J.K.L.M.N.O.P.M.Q.R.S.T.U.V.W.X.Y.  ",
"Z.`. +.+++@+#+$+%+&+*+=+-+;+>+,+'+T.)+!+~+{+]+  ",
"  ^+/+(+_+:+<+[+}+|+1+2+3+4+5+6+7+8+9+o.0+a+b+  ",
"  c+d+e+f+g+h+i+j+k+l+m+l+n+o+p+q+r+s+t+u+v+w+  ",
"  x+y+z+A+B+C+D+E+F+G+H+I+J+K+L+M+N+O+P+Q+R+    ",
"    S+T+U+V+W+X+Y+Z+`+ @.@+@@@#@$@%@&@*@=@-@    ",
"    ;@>@,@'@)@!@~@{@]@9+{@^@/@(@_@:@<@[@}@      ",
"      |@1@2@3@4@5@6@7@8@9@0@a@b@c@d@e@f@        ",
"        g@h@i@j@k@l@m@n@o@p@q@r@s@t@u@          ",
"            v@w@x@y@z@A@B@C@D@E@F@G@            ",
"                H@I@J@K@L@M@N@O@                ",
"                                                "};
