/* XPM */
static char * rotate_xpm[] = {
"24 22 117 2",
"  	c None",
". 	c #204A87",
"+ 	c #709DCD",
"@ 	c #709DCE",
"# 	c #719ECE",
"$ 	c #719FCF",
"% 	c #729FCF",
"& 	c #3465A4",
"* 	c #7490B2",
"= 	c #6B98C9",
"- 	c #4F7EB6",
"; 	c #4E7DB6",
"> 	c #4E7DB5",
", 	c #4F7DB5",
"' 	c #6D9BCC",
") 	c #FFFFFF",
"! 	c #6593C6",
"~ 	c #4E7DB4",
"{ 	c #4E7CB4",
"] 	c #6896C9",
"^ 	c #436FA7",
"/ 	c #608EC2",
"( 	c #4D7CB4",
"_ 	c #4D7CB3",
": 	c #6391C5",
"< 	c #3E6CA6",
"[ 	c #3A69A5",
"} 	c #5B89BF",
"| 	c #4D7BB3",
"1 	c #5484BB",
"2 	c #5585BB",
"3 	c #5684BC",
"4 	c #5685BC",
"5 	c #5281B9",
"6 	c #5382B9",
"7 	c #4D7CB5",
"8 	c #4F7EB7",
"9 	c #507FB8",
"0 	c #C1BDB6",
"a 	c #BAB7B0",
"b 	c #B4B1AA",
"c 	c #AEAAA4",
"d 	c #4878B3",
"e 	c #4A79B3",
"f 	c #4A7AB3",
"g 	c #4C7AB4",
"h 	c #4C7BB5",
"i 	c #4C7DB6",
"j 	c #B9B6AF",
"k 	c #B1AEA7",
"l 	c #A8A59E",
"m 	c #4373AF",
"n 	c #4575B0",
"o 	c #4777B1",
"p 	c #4878B2",
"q 	c #4979B2",
"r 	c #4979B3",
"s 	c #C0BCB5",
"t 	c #B0ADA6",
"u 	c #A5A29C",
"v 	c #4171AC",
"w 	c #4172AE",
"x 	c #4272AE",
"y 	c #4374AF",
"z 	c #4474AF",
"A 	c #4676B1",
"B 	c #BDB9B2",
"C 	c #B9B5AE",
"D 	c #3E6EAA",
"E 	c #3E6FAB",
"F 	c #4070AC",
"G 	c #4071AD",
"H 	c #4271AD",
"I 	c #4272AD",
"J 	c #4373AE",
"K 	c #C2BEB7",
"L 	c #3A6BA8",
"M 	c #3C6CA9",
"N 	c #3D6DAA",
"O 	c #3F6FAB",
"P 	c #4070AB",
"Q 	c #ACA9A2",
"R 	c #999690",
"S 	c #3868A6",
"T 	c #396AA7",
"U 	c #3A6AA8",
"V 	c #3A6BA9",
"W 	c #9F9C96",
"X 	c #B7B3AD",
"Y 	c #3968A4",
"Z 	c #3C6AA4",
"` 	c #AAA7A1",
" .	c #96938D",
"..	c #84827D",
"+.	c #3565A5",
"@.	c #3567A5",
"#.	c #827F7A",
"$.	c #9B9892",
"%.	c #AFACA5",
"&.	c #B8B4AD",
"*.	c #406CA4",
"=.	c #6985A8",
"-.	c #B2AFA8",
";.	c #A3A09A",
">.	c #918F89",
",.	c #807E79",
"'.	c #908D88",
").	c #AAA6A0",
"!.	c #B6B3AC",
"~.	c #617CA0",
"{.	c #BCB8B1",
"].	c #A19E98",
"^.	c #A4A19B",
"/.	c #BEBAB3",
"(.	c #BFBCB4",
"_.	c #B3AFA9",
":.	c #6783A6",
"                                                ",
"                                                ",
"        . . . . . . . . . . .                   ",
"        . + + @ # $ % % % % .   & & & *         ",
"        . = - ; > , > > > ' .   & ) ) & *       ",
"        . ! > > > ~ ~ { ~ ] .   * ^ & ) &       ",
"        . / ( ( ( ( _ . . : .   < [ & ) & & &   ",
"        . } | | | | . % % . .   & ) ) ) ) ) &   ",
"        . 1 2 3 4 . % 5 6 % .     & ) ) ) &     ",
"        . . . . . % 7 ; 8 9 % .     & ) &       ",
"      0 a b c . % d e f g h i % .     &         ",
"      j k l . % m n n o o p q r % .             ",
"      s & t u . % v w x y z n A o % .           ",
"      & ) & B C . % D E F G H I J z % .         ",
"    & ) ) ) & K b . % L M N D O P % .           ",
"  & ) ) ) ) ) & Q R . % S T U V % . W X         ",
"  & & & ) & Y Z `  .... % +.@.% . #.$.%.&.      ",
"    a & ) & *.=.-.;.>.,.. % % . ..'.).!.j       ",
"    b ~.& ) ) & B {.t ].R . . ;.^.%./.          ",
"    (._.:.& & &         /.(.0                   ",
"                                                ",
"                                                "};
