/* XPM */
static char * scale_xpm[] = {
"24 22 62 1",
" 	c None",
".	c #95928C",
"+	c #000000",
"@	c #C0BEBA",
"#	c #ABABAB",
"$	c #E1E0E1",
"%	c #E0E0E0",
"&	c #E1E1E2",
"*	c #E3E2E2",
"=	c #E3E4E4",
"-	c #E5E5E5",
";	c #E6E6E6",
">	c #E6E7E6",
",	c #E7E7E7",
"'	c #E1E1E1",
")	c #E2E2E1",
"!	c #E3E2E3",
"~	c #E4E4E4",
"{	c #E4E4E5",
"]	c #E7E7E8",
"^	c #E8E8E8",
"/	c #E9E9E9",
"(	c #E4E4E3",
"_	c #E4E5E5",
":	c #E7E7E6",
"<	c #EAE9EA",
"[	c #EAEBEB",
"}	c #EBEBEB",
"|	c #EBEBEC",
"1	c #E6E5E6",
"2	c #E9E9E8",
"3	c #EAEAEB",
"4	c #ECECEC",
"5	c #EDEDED",
"6	c #EEEEEE",
"7	c #E8E9E9",
"8	c #EBEAEB",
"9	c #ECEBEB",
"0	c #EEEFEE",
"a	c #EEEFEF",
"b	c #F0F0EF",
"c	c #F0F0F1",
"d	c #EBEAEA",
"e	c #EBECEC",
"f	c #EEEEED",
"g	c #EFEFF0",
"h	c #F0F0F0",
"i	c #F1F1F1",
"j	c #F1F2F2",
"k	c #F3F2F3",
"l	c #EDEDEC",
"m	c #F2F3F2",
"n	c #F3F3F4",
"o	c #F4F5F4",
"p	c #F5F5F4",
"q	c #EFEFEF",
"r	c #F2F2F3",
"s	c #F4F3F4",
"t	c #F5F5F5",
"u	c #F6F6F5",
"v	c #F6F7F6",
"w	c #F8F7F8",
"                        ",
"          .+.           ",
"         .+++.          ",
"           +            ",
"           +            ",
"                        ",
"      @##########       ",
"      #$%%&*=-;>,#      ",
"  .   #')!~{;]^//#   .  ",
" .+   #(~_;:^<[}|#   +. ",
" ++++ #1,,2/34556# ++++ ",
" .+   #^7/8950abc#   +. ",
"  .   #d}e5fghijk#   .  ",
"      #l56bhjmnop#      ",
"      #qghirstuvw#      ",
"      @##########@      ",
"                        ",
"           +            ",
"           +            ",
"         .+++.          ",
"          .+.           ",
"                        "};
