/* XPM */
static char * stop_xpm[] = {
"24 22 92 2",
"  	c None",
". 	c #FC0000",
"+ 	c #F70000",
"@ 	c #F80000",
"# 	c #F30000",
"$ 	c #ED0000",
"% 	c #EE0000",
"& 	c #E90000",
"* 	c #E70000",
"= 	c #E40000",
"- 	c #DF0000",
"; 	c #E10000",
"> 	c #BF0005",
", 	c #A0000B",
"' 	c #A2000A",
") 	c #9F000B",
"! 	c #C10005",
"~ 	c #DA0000",
"{ 	c #DD0000",
"] 	c #B20005",
"^ 	c #8A000C",
"/ 	c #8D000B",
"( 	c #B40005",
"_ 	c #D60000",
": 	c #D90000",
"< 	c #AA0005",
"[ 	c #80000B",
"} 	c #83000A",
"| 	c #AD0005",
"1 	c #D80000",
"2 	c #D50000",
"3 	c #D00000",
"4 	c #D30000",
"5 	c #A20005",
"6 	c #77000B",
"7 	c #79000B",
"8 	c #76000B",
"9 	c #A50005",
"0 	c #CB0000",
"a 	c #CE0000",
"b 	c #9C0005",
"c 	c #6D000A",
"d 	c #70000A",
"e 	c #9F0005",
"f 	c #C70000",
"g 	c #C60000",
"h 	c #CA0000",
"i 	c #950005",
"j 	c #65000A",
"k 	c #68000A",
"l 	c #980004",
"m 	c #C10000",
"n 	c #C40000",
"o 	c #8E0005",
"p 	c #5D000A",
"q 	c #60000A",
"r 	c #910004",
"s 	c #BC0000",
"t 	c #C00000",
"u 	c #880005",
"v 	c #55000A",
"w 	c #59000A",
"x 	c #8C0004",
"y 	c #B80000",
"z 	c #BB0000",
"A 	c #830004",
"B 	c #4F0009",
"C 	c #520009",
"D 	c #4E0009",
"E 	c #860004",
"F 	c #B30000",
"G 	c #B60000",
"H 	c #7B0005",
"I 	c #470009",
"J 	c #4A0009",
"K 	c #460009",
"L 	c #7F0005",
"M 	c #AE0000",
"N 	c #AF0000",
"O 	c #960002",
"P 	c #7E0005",
"Q 	c #800005",
"R 	c #970001",
"S 	c #A90000",
"T 	c #AA0000",
"U 	c #AC0000",
"V 	c #AB0000",
"W 	c #A40000",
"X 	c #9E0000",
"Y 	c #9F0000",
"Z 	c #9A0000",
"` 	c #950000",
"                  . . . . . .                   ",
"            + @ @ @ @ @ @ @ @ @ @ +             ",
"          # # # # # # # # # # # # # #           ",
"      $ % % % % % % % % % % % % % % % % $       ",
"      & & & & & & & & & & & & & & & & & & *     ",
"    = = = = = = = = = = = = = = = = = = = =     ",
"  - - - - ; > , ' ' ' ' ' ' ' ' ) ! ; - - - -   ",
"  ~ ~ ~ ~ { ] ^ / / / / / / / / ^ ( { ~ ~ ~ ~   ",
"  _ _ _ _ : < [ } } } } } } } } [ | 1 _ _ _ _ 2 ",
"3 3 3 3 3 4 5 6 7 7 7 7 7 7 7 7 8 9 4 3 3 3 3 3 ",
"0 0 0 0 0 a b c d d d d d d d d c e a 0 0 0 0 0 ",
"f g g g g h i j k k k k k k k k j l h g g g g f ",
"m m m m m n o p q q q q q q q q p r n m m m m m ",
"s s s s s t u v w w w w w w w w v x t s s s s s ",
"  y y y y z A B C C C C C C C C D E z y y y y   ",
"  F F F F G H I J J J J J J J J K L G F F F F   ",
"  M M M M N O P Q Q Q Q Q Q Q Q P R N M M M M   ",
"    S S S S T U V V V V V V V V U T S S S S     ",
"      W W W W W W W W W W W W W W W W W W       ",
"        X Y Y Y Y Y Y Y Y Y Y Y Y Y Y X         ",
"          Z Z Z Z Z Z Z Z Z Z Z Z Z Z           ",
"              ` ` ` ` ` ` ` ` ` `               "};
