/* XPM */
static char * Text_xpm[] = {
"16 16 76 1",
" 	c None",
".	c #3C3B39",
"+	c #020202",
"@	c #000000",
"#	c #53524E",
"$	c #494A49",
"%	c #6C6C6C",
"&	c #696969",
"*	c #7C7C7C",
"=	c #333232",
"-	c #3E3D3B",
";	c #797979",
">	c #525252",
",	c #4E4E4E",
"'	c #494949",
")	c #3E3E3E",
"!	c #4A4949",
"~	c #6A6A6A",
"{	c #454545",
"]	c #0A0A0A",
"^	c #404040",
"/	c #333333",
"(	c #2A2928",
"_	c #757575",
":	c #434343",
"<	c #2F2F2E",
"[	c #4B4947",
"}	c #252525",
"|	c #2C2C2C",
"1	c #0D0D0D",
"2	c #222120",
"3	c #5D5D5D",
"4	c #3A3A3A",
"5	c #1B1B1A",
"6	c #222222",
"7	c #1B1B1B",
"8	c #797772",
"9	c #424241",
"0	c #242424",
"a	c #5A5955",
"b	c #41403E",
"c	c #1F1F1F",
"d	c #201F1E",
"e	c #6F6D68",
"f	c #787878",
"g	c #2B2B2B",
"h	c #161616",
"i	c #0E0E0D",
"j	c #131312",
"k	c #050505",
"l	c #1A1A1A",
"m	c #0C0C0C",
"n	c #A5A19B",
"o	c #2E2E2E",
"p	c #3C3C3C",
"q	c #444444",
"r	c #1E1E1E",
"s	c #1C1C1C",
"t	c #383735",
"u	c #85827D",
"v	c #424141",
"w	c #151515",
"x	c #1C1B1A",
"y	c #1D1C1B",
"z	c #1D1D1D",
"A	c #191918",
"B	c #373634",
"C	c #141414",
"D	c #171717",
"E	c #908D88",
"F	c #030404",
"G	c #080809",
"H	c #43413F",
"I	c #0C0B0B",
"J	c #000001",
"K	c #0F0F0F",
"                ",
"      .++@#     ",
"      $%&*=     ",
"     -;>,')     ",
"     !~{]^/(    ",
"     _:<[}|1    ",
"    2345 1678   ",
"    9)0a bccd   ",
"   efghijklcmn  ",
"   op6/::q|rst  ",
"  uvswx222yzcA  ",
"  B:r@     CcDE ",
"  FG@H     IJ@K ",
"                ",
"                ",
"                "};
