/* XPM */
static char * translate_xpm[] = {
"24 22 33 1",
" 	c None",
".	c #204A87",
"+	c #729FCF",
"@	c #4C7CB5",
"#	c #5383BA",
"$	c #5988BE",
"%	c #6291C4",
"&	c #B9B5AE",
"*	c #AFABA5",
"=	c #ABA8A2",
"-	c #B5B2AB",
";	c #BEBBB4",
">	c #BAB7B0",
",	c #AEAAA4",
"'	c #A4A19B",
")	c #909192",
"!	c #8B8D8E",
"~	c #A09D97",
"{	c #ACA9A2",
"]	c #B9B6AF",
"^	c #BCB8B1",
"/	c #B0ADA6",
"(	c #A7A49E",
"_	c #898A8B",
":	c #9B9993",
"<	c #A5A29B",
"[	c #B1AEA7",
"}	c #BFBCB4",
"|	c #B3AFA9",
"1	c #98999A",
"2	c #979899",
"3	c #A9A69F",
"4	c #B1B2B1",
"                        ",
"           .            ",
"          .+.           ",
"         .+@+.          ",
"        .+@@@+.         ",
"        ...#...         ",
"          .$.           ",
"     ..   .%.   ..      ",
"    .+.   .+.   .+.     ",
"   .+@.....+.....@+.    ",
"  .+@@#$%+++++%$#@@+.   ",
"   .+@.....+.....@+.    ",
"    .+.   .+.   .+.     ",
"     ..   .%.   ..      ",
"          .$.           ",
"        ...#...         ",
"      &*.+@@@+.=-;      ",
"     >,').+@+.!~{]      ",
"     ^/(~!.+._:<[}      ",
"      ;&|=1.23/&        ",
"           4            ",
"                        "};
