/* XPM */
static char * undo_xpm[] = {
"24 22 138 2",
"  	c None",
". 	c #4977CD",
"+ 	c #4676D4",
"@ 	c #3F72D3",
"# 	c #3D70D2",
"$ 	c #3C6FD2",
"% 	c #4073D4",
"& 	c #3F70CD",
"* 	c #4776CD",
"= 	c #4376D8",
"- 	c #376CD5",
"; 	c #386ED4",
"> 	c #386FD5",
", 	c #3970D6",
"' 	c #3A71D6",
") 	c #3971D7",
"! 	c #3A72D7",
"~ 	c #3D75D9",
"{ 	c #3C70CD",
"] 	c #4B74C5",
"^ 	c #3B69CB",
"/ 	c #4B79CC",
"( 	c #4072D3",
"_ 	c #376DD4",
": 	c #386DD4",
"< 	c #396FD5",
"[ 	c #3970D5",
"} 	c #3B72D7",
"| 	c #3B73D8",
"1 	c #3C73D8",
"2 	c #3C74D8",
"3 	c #3C75D9",
"4 	c #3D76DA",
"5 	c #3E74D5",
"6 	c #4973C5",
"7 	c #3567D1",
"8 	c #3E6CCE",
"9 	c #4E7BD1",
"0 	c #376CD3",
"a 	c #396FD6",
"b 	c #3B74D8",
"c 	c #3B75D8",
"d 	c #3D76D9",
"e 	c #3E77DA",
"f 	c #3E78DB",
"g 	c #3E79DB",
"h 	c #3F79DC",
"i 	c #4079D9",
"j 	c #3668D1",
"k 	c #3568D2",
"l 	c #3A6CCF",
"m 	c #4372CD",
"n 	c #386ED5",
"o 	c #3B74D9",
"p 	c #386ED0",
"q 	c #3365BE",
"r 	c #3567C1",
"s 	c #3A6FCD",
"t 	c #407BDC",
"u 	c #3F7BDD",
"v 	c #407CDD",
"w 	c #4078D4",
"x 	c #4873C6",
"y 	c #3669D1",
"z 	c #366AD3",
"A 	c #376BD4",
"B 	c #3971D6",
"C 	c #3A72D6",
"D 	c #3465BF",
"E 	c #437EDD",
"F 	c #4280E0",
"G 	c #427FDF",
"H 	c #427EDE",
"I 	c #4873C7",
"J 	c #356AD2",
"K 	c #376CD4",
"L 	c #376ED5",
"M 	c #3160B5",
"N 	c #4380DD",
"O 	c #4382E1",
"P 	c #4483E0",
"Q 	c #4178CE",
"R 	c #4773C7",
"S 	c #366AD2",
"T 	c #366BD4",
"U 	c #376FD5",
"V 	c #2B56A4",
"W 	c #3B77D3",
"X 	c #3B7EE0",
"Y 	c #3A7EE1",
"Z 	c #3B78D5",
"` 	c #4773C8",
" .	c #3569D2",
"..	c #356BD3",
"+.	c #3670D7",
"@.	c #2B5EBD",
"#.	c #3E82E1",
"$.	c #3D82E3",
"%.	c #3D7EDC",
"&.	c #4673C8",
"*.	c #3569D3",
"=.	c #366CD4",
"-.	c #376DD5",
";.	c #356ED6",
">.	c #2A66D4",
",.	c #2A68D5",
"'.	c #2C6BD7",
").	c #3069CF",
"!.	c #4588E2",
"~.	c #4188E6",
"{.	c #4284DF",
"].	c #4573C9",
"^.	c #2E67D4",
"/.	c #2662D3",
"(.	c #2967D5",
"_.	c #2B6AD6",
":.	c #2E6ED9",
"<.	c #3172DA",
"[.	c #356FD1",
"}.	c #4787DF",
"|.	c #458EE9",
"1.	c #4588E0",
"2.	c #498AE0",
"3.	c #4994ED",
"4.	c #4789DD",
"5.	c #4D8FE4",
"6.	c #4E9BEF",
"7.	c #4888D7",
"8.	c #5398EA",
"9.	c #539FF1",
"0.	c #4783CC",
"a.	c #5BA7F3",
"b.	c #57A2F0",
"c.	c #5EAEF9",
"d.	c #4F8ED7",
"e.	c #5EA6F0",
"f.	c #5DA2ED",
"g.	c #4A81C9",
"                                                ",
"                    . + @ # $ % &               ",
"                * = - ; > , ' ) ! ~ {           ",
"] ^         / ( _ : < [ ' } | 1 2 3 4 5         ",
"6 7 8     9 - 0 : a ' ! | b c d e f g h i       ",
"6 j k l m : 0 n < ' o p q     r s t u t v w     ",
"x 7 y z A 0 n < B C D               E F G H     ",
"I k J A K L a B C M                   N O P Q   ",
"R k S T _ U , | V                     W X Y Z   ",
"`  ..._ L , ! +.@.                      #.$.%.  ",
"&.*.=.-., ;.>.,.'.).                    !.~.{.  ",
"].T _ -.^./.(._.:.<.[.                  }.|.1.  ",
"                                        2.3.4.  ",
"                                        5.6.7.  ",
"                                        8.9.0.  ",
"                                        a.b.    ",
"                                        c.d.    ",
"                                        e.      ",
"                                      f.        ",
"                                      g.        ",
"                                                ",
"                                                "};
