/* XPM */
static char * hexagon_xpm[] = {
"24 22 2 1",
" 	c None",
".	c #FFFFFF",
"                        ",
"     .............      ",
"    ...............     ",
"    ..           ...    ",
"   ..             ..    ",
"   ..              ..   ",
"  ..               ...  ",
"  ..                ..  ",
" ..                  .. ",
" ..                  .. ",
"..                    ..",
"..                    ..",
"..                    ..",
" ..                  .. ",
"  ..                ... ",
"  ...               ..  ",
"   ..              ..   ",
"    ..            ..    ",
"    ..            ..    ",
"     ..............     ",
"      .............     ",
"                        "};
